<svg xmlns="http://www.w3.org/2000/svg" xmlns:xlink="http://www.w3.org/1999/xlink" width="80" zoomAndPan="magnify" viewBox="0 0 60 30.000001" height="40" preserveAspectRatio="xMidYMid meet" version="1.0"><defs><g/><clipPath id="49c9f63e9a"><path d="M 47 3 L 54.941406 3 L 54.941406 9 L 47 9 Z M 47 3 " clip-rule="nonzero"/></clipPath><clipPath id="6cf30999bf"><rect x="0" width="55" y="0" height="11"/></clipPath><clipPath id="cecf5141f7"><rect x="0" width="40" y="0" height="6"/></clipPath></defs><g transform="matrix(1, 0, 0, 1, 2, 6)"><g clip-path="url(#6cf30999bf)"><g fill="#ffffff" fill-opacity="1"><g transform="translate(0.702834, 8.266757)"><g><path d="M 6.859375 -2.9375 L 6.546875 -2.78125 C 6.796875 -2.71875 6.96875 -2.597656 7.0625 -2.421875 C 7.15625 -2.253906 7.15625 -2.039062 7.0625 -1.78125 L 6.875 -1.25 C 6.832031 -1.144531 6.765625 -1.039062 6.671875 -0.9375 C 6.585938 -0.832031 6.484375 -0.75 6.359375 -0.6875 L 5.25 -0.125 C 5.1875 -0.0820312 5.117188 -0.0507812 5.046875 -0.03125 C 4.972656 -0.0078125 4.898438 0 4.828125 0 L 0.5 0 L 2.34375 -5.109375 L 6.03125 -5.109375 C 6.613281 -5.109375 7.03125 -4.988281 7.28125 -4.75 C 7.539062 -4.507812 7.582031 -4.132812 7.40625 -3.625 L 7.359375 -3.515625 C 7.316406 -3.398438 7.25 -3.289062 7.15625 -3.1875 C 7.070312 -3.09375 6.972656 -3.007812 6.859375 -2.9375 Z M 2.78125 -1.234375 L 4.5625 -1.234375 C 4.664062 -1.234375 4.765625 -1.257812 4.859375 -1.3125 C 4.960938 -1.375 5.046875 -1.484375 5.109375 -1.640625 C 5.160156 -1.796875 5.15625 -1.898438 5.09375 -1.953125 C 5.039062 -2.015625 4.960938 -2.046875 4.859375 -2.046875 L 3.078125 -2.046875 Z M 4.953125 -3.046875 C 5.054688 -3.046875 5.160156 -3.078125 5.265625 -3.140625 C 5.367188 -3.203125 5.445312 -3.3125 5.5 -3.46875 C 5.5625 -3.625 5.5625 -3.726562 5.5 -3.78125 C 5.445312 -3.84375 5.367188 -3.875 5.265625 -3.875 L 3.734375 -3.875 L 3.4375 -3.046875 Z M 4.953125 -3.046875 "/></g></g></g><g fill="#ffffff" fill-opacity="1"><g transform="translate(7.105009, 8.266757)"><g><path d="M 2.0625 0 C 1.976562 0 1.90625 -0.0078125 1.84375 -0.03125 C 1.78125 -0.0507812 1.726562 -0.0820312 1.6875 -0.125 L 1 -0.6875 C 0.9375 -0.75 0.894531 -0.832031 0.875 -0.9375 C 0.863281 -1.039062 0.878906 -1.144531 0.921875 -1.25 L 1.78125 -3.625 C 1.96875 -4.132812 2.273438 -4.507812 2.703125 -4.75 C 3.128906 -4.988281 3.632812 -5.109375 4.21875 -5.109375 L 6.734375 -5.109375 C 6.898438 -5.109375 7.019531 -5.066406 7.09375 -4.984375 L 7.796875 -4.4375 C 7.867188 -4.375 7.910156 -4.289062 7.921875 -4.1875 C 7.941406 -4.082031 7.929688 -3.96875 7.890625 -3.84375 L 7.015625 -1.484375 C 6.835938 -0.972656 6.53125 -0.597656 6.09375 -0.359375 C 5.664062 -0.117188 5.15625 0 4.5625 0 Z M 2.890625 -1.609375 C 2.847656 -1.503906 2.851562 -1.414062 2.90625 -1.34375 C 2.957031 -1.269531 3.035156 -1.234375 3.140625 -1.234375 L 4.703125 -1.234375 C 4.804688 -1.234375 4.910156 -1.269531 5.015625 -1.34375 C 5.117188 -1.414062 5.1875 -1.503906 5.21875 -1.609375 L 5.90625 -3.484375 C 5.945312 -3.597656 5.941406 -3.691406 5.890625 -3.765625 C 5.835938 -3.835938 5.757812 -3.875 5.65625 -3.875 L 4.09375 -3.875 C 3.988281 -3.875 3.882812 -3.835938 3.78125 -3.765625 C 3.675781 -3.691406 3.601562 -3.597656 3.5625 -3.484375 Z M 2.890625 -1.609375 "/></g></g></g><g fill="#ffffff" fill-opacity="1"><g transform="translate(13.624873, 8.266757)"><g><path d="M 2.34375 0 L 0.5 0 L 2.34375 -5.109375 L 4.03125 -5.109375 L 5.6875 -2.078125 L 6.78125 -5.109375 L 8.625 -5.109375 L 7.015625 -0.65625 C 6.960938 -0.519531 6.875 -0.421875 6.75 -0.359375 L 6.171875 -0.0625 C 6.109375 -0.0195312 6.035156 0 5.953125 0 L 5.09375 0 L 3.390625 -2.90625 Z M 2.34375 0 "/></g></g></g><g fill="#ffffff" fill-opacity="1"><g transform="translate(20.466419, 8.266757)"><g><path d="M 8.296875 -5.109375 L 7.859375 -3.875 L 4.125 -3.875 C 4.03125 -3.875 3.925781 -3.835938 3.8125 -3.765625 C 3.707031 -3.691406 3.632812 -3.597656 3.59375 -3.484375 L 2.921875 -1.609375 C 2.878906 -1.503906 2.882812 -1.414062 2.9375 -1.34375 C 2.988281 -1.269531 3.070312 -1.234375 3.1875 -1.234375 L 4.78125 -1.234375 C 4.882812 -1.234375 4.984375 -1.269531 5.078125 -1.34375 C 5.179688 -1.414062 5.253906 -1.503906 5.296875 -1.609375 L 5.484375 -2.140625 L 4.40625 -2.140625 L 4.796875 -3.25 L 6.71875 -3.25 C 6.757812 -3.25 6.800781 -3.242188 6.84375 -3.234375 C 6.882812 -3.222656 6.914062 -3.195312 6.9375 -3.15625 L 7.34375 -2.828125 C 7.40625 -2.785156 7.441406 -2.726562 7.453125 -2.65625 C 7.460938 -2.582031 7.457031 -2.503906 7.4375 -2.421875 L 7.015625 -1.25 C 6.972656 -1.144531 6.90625 -1.035156 6.8125 -0.921875 C 6.726562 -0.816406 6.625 -0.738281 6.5 -0.6875 L 5.390625 -0.125 C 5.316406 -0.0820312 5.242188 -0.0507812 5.171875 -0.03125 C 5.109375 -0.0078125 5.039062 0 4.96875 0 L 2.09375 0 C 1.925781 0 1.804688 -0.0390625 1.734375 -0.125 L 1.03125 -0.6875 C 0.96875 -0.75 0.925781 -0.832031 0.90625 -0.9375 C 0.894531 -1.039062 0.910156 -1.144531 0.953125 -1.25 L 1.8125 -3.625 C 2 -4.132812 2.304688 -4.507812 2.734375 -4.75 C 3.160156 -4.988281 3.671875 -5.109375 4.265625 -5.109375 Z M 8.296875 -5.109375 "/></g></g></g><g fill="#ffffff" fill-opacity="1"><g transform="translate(27.056897, 8.266757)"><g><path d="M 2.34375 -5.109375 L 6.359375 -5.109375 C 6.941406 -5.109375 7.363281 -4.988281 7.625 -4.75 C 7.882812 -4.507812 7.921875 -4.132812 7.734375 -3.625 L 6.875 -1.25 C 6.832031 -1.144531 6.765625 -1.039062 6.671875 -0.9375 C 6.585938 -0.832031 6.484375 -0.75 6.359375 -0.6875 L 5.25 -0.125 C 5.1875 -0.0820312 5.117188 -0.0507812 5.046875 -0.03125 C 4.972656 -0.0078125 4.898438 0 4.828125 0 L 0.5 0 Z M 5.578125 -3.875 L 3.734375 -3.875 L 2.78125 -1.234375 L 4.625 -1.234375 C 4.726562 -1.234375 4.832031 -1.269531 4.9375 -1.34375 C 5.039062 -1.414062 5.109375 -1.503906 5.140625 -1.609375 L 5.828125 -3.484375 C 5.867188 -3.597656 5.863281 -3.691406 5.8125 -3.765625 C 5.757812 -3.835938 5.679688 -3.875 5.578125 -3.875 Z M 5.578125 -3.875 "/></g></g></g><g fill="#ffffff" fill-opacity="1"><g transform="translate(33.482609, 8.266757)"><g><path d="M 6.59375 0 L 4.75 0 L 5.09375 -0.953125 L 3.3125 -0.953125 L 2.875 -1.390625 L 2.1875 0 L 0.328125 0 L 2.21875 -3.84375 C 2.269531 -3.96875 2.335938 -4.082031 2.421875 -4.1875 C 2.503906 -4.289062 2.601562 -4.375 2.71875 -4.4375 L 3.828125 -4.984375 C 3.960938 -5.066406 4.109375 -5.109375 4.265625 -5.109375 L 6.609375 -5.109375 C 6.679688 -5.109375 6.742188 -5.097656 6.796875 -5.078125 C 6.859375 -5.054688 6.910156 -5.023438 6.953125 -4.984375 L 7.796875 -4.203125 C 7.878906 -4.128906 7.925781 -4.039062 7.9375 -3.9375 C 7.957031 -3.832031 7.945312 -3.722656 7.90625 -3.609375 Z M 3.9375 -3.484375 L 3.21875 -2.078125 L 5.5 -2.078125 L 6.015625 -3.484375 C 6.054688 -3.585938 6.050781 -3.675781 6 -3.75 C 5.945312 -3.832031 5.863281 -3.875 5.75 -3.875 L 4.484375 -3.875 C 4.367188 -3.875 4.257812 -3.832031 4.15625 -3.75 C 4.0625 -3.675781 3.988281 -3.585938 3.9375 -3.484375 Z M 3.9375 -3.484375 "/></g></g></g><g fill="#7ed957" fill-opacity="1"><g transform="translate(40.137376, 8.266757)"><g><path d="M 2.34375 0 L 0.5 0 L 2.34375 -5.109375 L 4.1875 -5.109375 L 3.453125 -3.078125 L 5.828125 -3.078125 L 6.5625 -5.109375 L 8.40625 -5.109375 L 6.796875 -0.65625 C 6.742188 -0.519531 6.65625 -0.421875 6.53125 -0.359375 L 5.953125 -0.0625 C 5.878906 -0.0195312 5.804688 0 5.734375 0 L 4.71875 0 L 5.421875 -1.96875 L 3.703125 -1.96875 L 3.21875 -2.453125 Z M 2.34375 0 "/></g></g></g><g clip-path="url(#49c9f63e9a)"><g fill="#7ed957" fill-opacity="1"><g transform="translate(46.759236, 8.266757)"><g><path d="M 6.59375 0 L 4.75 0 L 5.09375 -0.953125 L 3.3125 -0.953125 L 2.875 -1.390625 L 2.1875 0 L 0.328125 0 L 2.21875 -3.84375 C 2.269531 -3.96875 2.335938 -4.082031 2.421875 -4.1875 C 2.503906 -4.289062 2.601562 -4.375 2.71875 -4.4375 L 3.828125 -4.984375 C 3.960938 -5.066406 4.109375 -5.109375 4.265625 -5.109375 L 6.609375 -5.109375 C 6.679688 -5.109375 6.742188 -5.097656 6.796875 -5.078125 C 6.859375 -5.054688 6.910156 -5.023438 6.953125 -4.984375 L 7.796875 -4.203125 C 7.878906 -4.128906 7.925781 -4.039062 7.9375 -3.9375 C 7.957031 -3.832031 7.945312 -3.722656 7.90625 -3.609375 Z M 3.9375 -3.484375 L 3.21875 -2.078125 L 5.5 -2.078125 L 6.015625 -3.484375 C 6.054688 -3.585938 6.050781 -3.675781 6 -3.75 C 5.945312 -3.832031 5.863281 -3.875 5.75 -3.875 L 4.484375 -3.875 C 4.367188 -3.875 4.257812 -3.832031 4.15625 -3.75 C 4.0625 -3.675781 3.988281 -3.585938 3.9375 -3.484375 Z M 3.9375 -3.484375 "/></g></g></g></g></g></g><g transform="matrix(1, 0, 0, 1, 10, 15)"><g clip-path="url(#cecf5141f7)"><g fill="#6cace3" fill-opacity="0.4"><g transform="translate(1.267261, 4.267282)"><g><path d="M 0.328125 -2.75 L 0.96875 -2.75 L 0.96875 -0.515625 L 2.34375 -0.515625 L 2.34375 0 L 0.328125 0 Z M 0.328125 -2.75 "/></g></g></g><g fill="#6cace3" fill-opacity="0.4"><g transform="translate(5.207096, 4.267282)"><g><path d="M 0.328125 -2.75 L 0.96875 -2.75 L 0.96875 0 L 0.328125 0 Z M 0.328125 -2.75 "/></g></g></g><g fill="#6cace3" fill-opacity="0.4"><g transform="translate(8.059537, 4.267282)"><g><path d="M 2.984375 -2.75 L 1.78125 0 L 1.15625 0 L -0.03125 -2.75 L 0.65625 -2.75 L 1.5 -0.78125 L 2.34375 -2.75 Z M 2.984375 -2.75 "/></g></g></g><g fill="#6cace3" fill-opacity="0.4"><g transform="translate(12.55883, 4.267282)"><g><path d="M 2.453125 -0.515625 L 2.453125 0 L 0.328125 0 L 0.328125 -2.75 L 2.40625 -2.75 L 2.40625 -2.25 L 0.953125 -2.25 L 0.953125 -1.640625 L 2.234375 -1.640625 L 2.234375 -1.15625 L 0.953125 -1.15625 L 0.953125 -0.515625 Z M 2.453125 -0.515625 "/></g></g></g><g fill="#6cace3" fill-opacity="0.4"><g transform="translate(16.762639, 4.267282)"><g><path d="M 1.234375 0.046875 C 1.015625 0.046875 0.800781 0.0195312 0.59375 -0.03125 C 0.394531 -0.09375 0.234375 -0.171875 0.109375 -0.265625 L 0.328125 -0.75 C 0.441406 -0.664062 0.582031 -0.597656 0.75 -0.546875 C 0.914062 -0.492188 1.078125 -0.46875 1.234375 -0.46875 C 1.421875 -0.46875 1.554688 -0.492188 1.640625 -0.546875 C 1.722656 -0.597656 1.765625 -0.671875 1.765625 -0.765625 C 1.765625 -0.828125 1.738281 -0.878906 1.6875 -0.921875 C 1.632812 -0.960938 1.566406 -0.992188 1.484375 -1.015625 C 1.410156 -1.046875 1.304688 -1.078125 1.171875 -1.109375 C 0.960938 -1.160156 0.789062 -1.210938 0.65625 -1.265625 C 0.519531 -1.316406 0.40625 -1.394531 0.3125 -1.5 C 0.21875 -1.613281 0.171875 -1.757812 0.171875 -1.9375 C 0.171875 -2.101562 0.210938 -2.25 0.296875 -2.375 C 0.378906 -2.507812 0.507812 -2.613281 0.6875 -2.6875 C 0.863281 -2.757812 1.078125 -2.796875 1.328125 -2.796875 C 1.503906 -2.796875 1.675781 -2.773438 1.84375 -2.734375 C 2.007812 -2.691406 2.15625 -2.632812 2.28125 -2.5625 L 2.09375 -2.078125 C 1.832031 -2.222656 1.578125 -2.296875 1.328125 -2.296875 C 1.148438 -2.296875 1.015625 -2.265625 0.921875 -2.203125 C 0.835938 -2.148438 0.796875 -2.078125 0.796875 -1.984375 C 0.796875 -1.878906 0.84375 -1.804688 0.9375 -1.765625 C 1.039062 -1.722656 1.191406 -1.675781 1.390625 -1.625 C 1.609375 -1.582031 1.78125 -1.535156 1.90625 -1.484375 C 2.039062 -1.429688 2.15625 -1.347656 2.25 -1.234375 C 2.351562 -1.128906 2.40625 -0.988281 2.40625 -0.8125 C 2.40625 -0.65625 2.359375 -0.507812 2.265625 -0.375 C 2.179688 -0.25 2.050781 -0.144531 1.875 -0.0625 C 1.695312 0.0078125 1.484375 0.046875 1.234375 0.046875 Z M 1.234375 0.046875 "/></g></g></g><g fill="#6cace3" fill-opacity="0.4"><g transform="translate(20.83643, 4.267282)"><g><path d="M 1.640625 0.046875 C 1.359375 0.046875 1.101562 -0.0078125 0.875 -0.125 C 0.65625 -0.25 0.476562 -0.421875 0.34375 -0.640625 C 0.21875 -0.859375 0.15625 -1.101562 0.15625 -1.375 C 0.15625 -1.644531 0.21875 -1.890625 0.34375 -2.109375 C 0.476562 -2.328125 0.65625 -2.492188 0.875 -2.609375 C 1.101562 -2.734375 1.363281 -2.796875 1.65625 -2.796875 C 1.894531 -2.796875 2.109375 -2.753906 2.296875 -2.671875 C 2.492188 -2.585938 2.65625 -2.46875 2.78125 -2.3125 L 2.375 -1.9375 C 2.1875 -2.15625 1.957031 -2.265625 1.6875 -2.265625 C 1.507812 -2.265625 1.351562 -2.222656 1.21875 -2.140625 C 1.09375 -2.066406 0.988281 -1.960938 0.90625 -1.828125 C 0.832031 -1.703125 0.796875 -1.550781 0.796875 -1.375 C 0.796875 -1.207031 0.832031 -1.054688 0.90625 -0.921875 C 0.988281 -0.785156 1.09375 -0.679688 1.21875 -0.609375 C 1.351562 -0.535156 1.507812 -0.5 1.6875 -0.5 C 1.957031 -0.5 2.1875 -0.609375 2.375 -0.828125 L 2.78125 -0.4375 C 2.65625 -0.28125 2.492188 -0.160156 2.296875 -0.078125 C 2.097656 0.00390625 1.878906 0.046875 1.640625 0.046875 Z M 1.640625 0.046875 "/></g></g></g><g fill="#6cace3" fill-opacity="0.4"><g transform="translate(25.284508, 4.267282)"><g><path d="M 1.65625 0.046875 C 1.375 0.046875 1.117188 -0.015625 0.890625 -0.140625 C 0.660156 -0.265625 0.476562 -0.429688 0.34375 -0.640625 C 0.21875 -0.859375 0.15625 -1.101562 0.15625 -1.375 C 0.15625 -1.644531 0.21875 -1.890625 0.34375 -2.109375 C 0.476562 -2.328125 0.660156 -2.492188 0.890625 -2.609375 C 1.117188 -2.734375 1.375 -2.796875 1.65625 -2.796875 C 1.945312 -2.796875 2.207031 -2.734375 2.4375 -2.609375 C 2.664062 -2.492188 2.84375 -2.328125 2.96875 -2.109375 C 3.101562 -1.890625 3.171875 -1.644531 3.171875 -1.375 C 3.171875 -1.101562 3.101562 -0.859375 2.96875 -0.640625 C 2.84375 -0.429688 2.664062 -0.265625 2.4375 -0.140625 C 2.207031 -0.015625 1.945312 0.046875 1.65625 0.046875 Z M 1.65625 -0.5 C 1.820312 -0.5 1.96875 -0.535156 2.09375 -0.609375 C 2.226562 -0.679688 2.332031 -0.785156 2.40625 -0.921875 C 2.488281 -1.054688 2.53125 -1.207031 2.53125 -1.375 C 2.53125 -1.550781 2.488281 -1.703125 2.40625 -1.828125 C 2.332031 -1.960938 2.226562 -2.066406 2.09375 -2.140625 C 1.96875 -2.222656 1.820312 -2.265625 1.65625 -2.265625 C 1.5 -2.265625 1.351562 -2.222656 1.21875 -2.140625 C 1.09375 -2.066406 0.988281 -1.960938 0.90625 -1.828125 C 0.832031 -1.703125 0.796875 -1.550781 0.796875 -1.375 C 0.796875 -1.207031 0.832031 -1.054688 0.90625 -0.921875 C 0.988281 -0.785156 1.09375 -0.679688 1.21875 -0.609375 C 1.351562 -0.535156 1.5 -0.5 1.65625 -0.5 Z M 1.65625 -0.5 "/></g></g></g><g fill="#6cace3" fill-opacity="0.4"><g transform="translate(30.169907, 4.267282)"><g><path d="M 2.078125 0 L 1.546875 -0.765625 L 0.96875 -0.765625 L 0.96875 0 L 0.328125 0 L 0.328125 -2.75 L 1.515625 -2.75 C 1.765625 -2.75 1.976562 -2.707031 2.15625 -2.625 C 2.332031 -2.550781 2.46875 -2.4375 2.5625 -2.28125 C 2.664062 -2.132812 2.71875 -1.957031 2.71875 -1.75 C 2.71875 -1.550781 2.664062 -1.375 2.5625 -1.21875 C 2.46875 -1.070312 2.332031 -0.960938 2.15625 -0.890625 L 2.765625 0 Z M 2.078125 -1.75 C 2.078125 -1.90625 2.023438 -2.023438 1.921875 -2.109375 C 1.816406 -2.191406 1.671875 -2.234375 1.484375 -2.234375 L 0.96875 -2.234375 L 0.96875 -1.28125 L 1.484375 -1.28125 C 1.671875 -1.28125 1.816406 -1.320312 1.921875 -1.40625 C 2.023438 -1.488281 2.078125 -1.601562 2.078125 -1.75 Z M 2.078125 -1.75 "/></g></g></g><g fill="#6cace3" fill-opacity="0.4"><g transform="translate(34.625866, 4.267282)"><g><path d="M 2.453125 -0.515625 L 2.453125 0 L 0.328125 0 L 0.328125 -2.75 L 2.40625 -2.75 L 2.40625 -2.25 L 0.953125 -2.25 L 0.953125 -1.640625 L 2.234375 -1.640625 L 2.234375 -1.15625 L 0.953125 -1.15625 L 0.953125 -0.515625 Z M 2.453125 -0.515625 "/></g></g></g><g fill="#ffffff" fill-opacity="1"><g transform="translate(1.267261, 4.267282)"><g><path d="M 0.328125 -2.75 L 0.96875 -2.75 L 0.96875 -0.515625 L 2.34375 -0.515625 L 2.34375 0 L 0.328125 0 Z M 0.328125 -2.75 "/></g></g></g><g fill="#ffffff" fill-opacity="1"><g transform="translate(5.207096, 4.267282)"><g><path d="M 0.328125 -2.75 L 0.96875 -2.75 L 0.96875 0 L 0.328125 0 Z M 0.328125 -2.75 "/></g></g></g><g fill="#ffffff" fill-opacity="1"><g transform="translate(8.059537, 4.267282)"><g><path d="M 2.984375 -2.75 L 1.78125 0 L 1.15625 0 L -0.03125 -2.75 L 0.65625 -2.75 L 1.5 -0.78125 L 2.34375 -2.75 Z M 2.984375 -2.75 "/></g></g></g><g fill="#ffffff" fill-opacity="1"><g transform="translate(12.55883, 4.267282)"><g><path d="M 2.453125 -0.515625 L 2.453125 0 L 0.328125 0 L 0.328125 -2.75 L 2.40625 -2.75 L 2.40625 -2.25 L 0.953125 -2.25 L 0.953125 -1.640625 L 2.234375 -1.640625 L 2.234375 -1.15625 L 0.953125 -1.15625 L 0.953125 -0.515625 Z M 2.453125 -0.515625 "/></g></g></g><g fill="#ffffff" fill-opacity="1"><g transform="translate(16.762639, 4.267282)"><g><path d="M 1.234375 0.046875 C 1.015625 0.046875 0.800781 0.0195312 0.59375 -0.03125 C 0.394531 -0.09375 0.234375 -0.171875 0.109375 -0.265625 L 0.328125 -0.75 C 0.441406 -0.664062 0.582031 -0.597656 0.75 -0.546875 C 0.914062 -0.492188 1.078125 -0.46875 1.234375 -0.46875 C 1.421875 -0.46875 1.554688 -0.492188 1.640625 -0.546875 C 1.722656 -0.597656 1.765625 -0.671875 1.765625 -0.765625 C 1.765625 -0.828125 1.738281 -0.878906 1.6875 -0.921875 C 1.632812 -0.960938 1.566406 -0.992188 1.484375 -1.015625 C 1.410156 -1.046875 1.304688 -1.078125 1.171875 -1.109375 C 0.960938 -1.160156 0.789062 -1.210938 0.65625 -1.265625 C 0.519531 -1.316406 0.40625 -1.394531 0.3125 -1.5 C 0.21875 -1.613281 0.171875 -1.757812 0.171875 -1.9375 C 0.171875 -2.101562 0.210938 -2.25 0.296875 -2.375 C 0.378906 -2.507812 0.507812 -2.613281 0.6875 -2.6875 C 0.863281 -2.757812 1.078125 -2.796875 1.328125 -2.796875 C 1.503906 -2.796875 1.675781 -2.773438 1.84375 -2.734375 C 2.007812 -2.691406 2.15625 -2.632812 2.28125 -2.5625 L 2.09375 -2.078125 C 1.832031 -2.222656 1.578125 -2.296875 1.328125 -2.296875 C 1.148438 -2.296875 1.015625 -2.265625 0.921875 -2.203125 C 0.835938 -2.148438 0.796875 -2.078125 0.796875 -1.984375 C 0.796875 -1.878906 0.84375 -1.804688 0.9375 -1.765625 C 1.039062 -1.722656 1.191406 -1.675781 1.390625 -1.625 C 1.609375 -1.582031 1.78125 -1.535156 1.90625 -1.484375 C 2.039062 -1.429688 2.15625 -1.347656 2.25 -1.234375 C 2.351562 -1.128906 2.40625 -0.988281 2.40625 -0.8125 C 2.40625 -0.65625 2.359375 -0.507812 2.265625 -0.375 C 2.179688 -0.25 2.050781 -0.144531 1.875 -0.0625 C 1.695312 0.0078125 1.484375 0.046875 1.234375 0.046875 Z M 1.234375 0.046875 "/></g></g></g><g fill="#ffffff" fill-opacity="1"><g transform="translate(20.83643, 4.267282)"><g><path d="M 1.640625 0.046875 C 1.359375 0.046875 1.101562 -0.0078125 0.875 -0.125 C 0.65625 -0.25 0.476562 -0.421875 0.34375 -0.640625 C 0.21875 -0.859375 0.15625 -1.101562 0.15625 -1.375 C 0.15625 -1.644531 0.21875 -1.890625 0.34375 -2.109375 C 0.476562 -2.328125 0.65625 -2.492188 0.875 -2.609375 C 1.101562 -2.734375 1.363281 -2.796875 1.65625 -2.796875 C 1.894531 -2.796875 2.109375 -2.753906 2.296875 -2.671875 C 2.492188 -2.585938 2.65625 -2.46875 2.78125 -2.3125 L 2.375 -1.9375 C 2.1875 -2.15625 1.957031 -2.265625 1.6875 -2.265625 C 1.507812 -2.265625 1.351562 -2.222656 1.21875 -2.140625 C 1.09375 -2.066406 0.988281 -1.960938 0.90625 -1.828125 C 0.832031 -1.703125 0.796875 -1.550781 0.796875 -1.375 C 0.796875 -1.207031 0.832031 -1.054688 0.90625 -0.921875 C 0.988281 -0.785156 1.09375 -0.679688 1.21875 -0.609375 C 1.351562 -0.535156 1.507812 -0.5 1.6875 -0.5 C 1.957031 -0.5 2.1875 -0.609375 2.375 -0.828125 L 2.78125 -0.4375 C 2.65625 -0.28125 2.492188 -0.160156 2.296875 -0.078125 C 2.097656 0.00390625 1.878906 0.046875 1.640625 0.046875 Z M 1.640625 0.046875 "/></g></g></g><g fill="#ffffff" fill-opacity="1"><g transform="translate(25.284508, 4.267282)"><g><path d="M 1.65625 0.046875 C 1.375 0.046875 1.117188 -0.015625 0.890625 -0.140625 C 0.660156 -0.265625 0.476562 -0.429688 0.34375 -0.640625 C 0.21875 -0.859375 0.15625 -1.101562 0.15625 -1.375 C 0.15625 -1.644531 0.21875 -1.890625 0.34375 -2.109375 C 0.476562 -2.328125 0.660156 -2.492188 0.890625 -2.609375 C 1.117188 -2.734375 1.375 -2.796875 1.65625 -2.796875 C 1.945312 -2.796875 2.207031 -2.734375 2.4375 -2.609375 C 2.664062 -2.492188 2.84375 -2.328125 2.96875 -2.109375 C 3.101562 -1.890625 3.171875 -1.644531 3.171875 -1.375 C 3.171875 -1.101562 3.101562 -0.859375 2.96875 -0.640625 C 2.84375 -0.429688 2.664062 -0.265625 2.4375 -0.140625 C 2.207031 -0.015625 1.945312 0.046875 1.65625 0.046875 Z M 1.65625 -0.5 C 1.820312 -0.5 1.96875 -0.535156 2.09375 -0.609375 C 2.226562 -0.679688 2.332031 -0.785156 2.40625 -0.921875 C 2.488281 -1.054688 2.53125 -1.207031 2.53125 -1.375 C 2.53125 -1.550781 2.488281 -1.703125 2.40625 -1.828125 C 2.332031 -1.960938 2.226562 -2.066406 2.09375 -2.140625 C 1.96875 -2.222656 1.820312 -2.265625 1.65625 -2.265625 C 1.5 -2.265625 1.351562 -2.222656 1.21875 -2.140625 C 1.09375 -2.066406 0.988281 -1.960938 0.90625 -1.828125 C 0.832031 -1.703125 0.796875 -1.550781 0.796875 -1.375 C 0.796875 -1.207031 0.832031 -1.054688 0.90625 -0.921875 C 0.988281 -0.785156 1.09375 -0.679688 1.21875 -0.609375 C 1.351562 -0.535156 1.5 -0.5 1.65625 -0.5 Z M 1.65625 -0.5 "/></g></g></g><g fill="#ffffff" fill-opacity="1"><g transform="translate(30.169907, 4.267282)"><g><path d="M 2.078125 0 L 1.546875 -0.765625 L 0.96875 -0.765625 L 0.96875 0 L 0.328125 0 L 0.328125 -2.75 L 1.515625 -2.75 C 1.765625 -2.75 1.976562 -2.707031 2.15625 -2.625 C 2.332031 -2.550781 2.46875 -2.4375 2.5625 -2.28125 C 2.664062 -2.132812 2.71875 -1.957031 2.71875 -1.75 C 2.71875 -1.550781 2.664062 -1.375 2.5625 -1.21875 C 2.46875 -1.070312 2.332031 -0.960938 2.15625 -0.890625 L 2.765625 0 Z M 2.078125 -1.75 C 2.078125 -1.90625 2.023438 -2.023438 1.921875 -2.109375 C 1.816406 -2.191406 1.671875 -2.234375 1.484375 -2.234375 L 0.96875 -2.234375 L 0.96875 -1.28125 L 1.484375 -1.28125 C 1.671875 -1.28125 1.816406 -1.320312 1.921875 -1.40625 C 2.023438 -1.488281 2.078125 -1.601562 2.078125 -1.75 Z M 2.078125 -1.75 "/></g></g></g><g fill="#ffffff" fill-opacity="1"><g transform="translate(34.625866, 4.267282)"><g><path d="M 2.453125 -0.515625 L 2.453125 0 L 0.328125 0 L 0.328125 -2.75 L 2.40625 -2.75 L 2.40625 -2.25 L 0.953125 -2.25 L 0.953125 -1.640625 L 2.234375 -1.640625 L 2.234375 -1.15625 L 0.953125 -1.15625 L 0.953125 -0.515625 Z M 2.453125 -0.515625 "/></g></g></g></g></g></svg>