<?xml version="1.0" encoding="UTF-8"?>
<svg version="1.1" xmlns="http://www.w3.org/2000/svg" width="128" height="128">
<path d="M0 0 C0.89847656 -0.020625 1.79695313 -0.04125 2.72265625 -0.0625 C9.07243641 -0.10001716 12.47616765 0.83488815 17.25 5.1875 C20.05187051 7.19753754 22.2708213 8.12508119 25.5 9.25 C36.94493283 13.25495631 36.94493283 13.25495631 40.08203125 18.55859375 C42.81215746 24.30533688 44.28512215 30.42475267 45.875 36.5625 C46.19082031 37.74134766 46.50664063 38.92019531 46.83203125 40.13476562 C49.125 48.81529018 49.125 48.81529018 49.125 52.25 C43.38451311 54.83884703 38.80900819 56.29812616 32.4609375 56.26953125 C31.64931152 56.26671143 30.83768555 56.2638916 30.00146484 56.26098633 C29.38223145 56.25736084 28.76299805 56.25373535 28.125 56.25 C28.09554961 60.66665225 28.07805184 65.08327867 28.0625 69.5 C28.04993164 71.35238281 28.04993164 71.35238281 28.03710938 73.2421875 C28.0192137 80.0425448 28.25887747 86.71628867 28.89575195 93.48583984 C29.24022334 97.63930635 29.27137892 101.77217301 29.25 105.9375 C29.25386719 106.73349609 29.25773437 107.52949219 29.26171875 108.34960938 C29.25185789 114.12314211 29.25185789 114.12314211 28.125 115.25 C19.5946941 116.45288325 11.08002852 116.40306308 2.48413086 116.38037109 C0.06422687 116.37500383 -2.35549221 116.38034737 -4.77539062 116.38671875 C-24.58220076 116.39639962 -24.58220076 116.39639962 -28.875 114.25 C-28.90250071 111.49992924 -28.92207451 108.75014533 -28.9375 106 C-28.94587891 105.24203125 -28.95425781 104.4840625 -28.96289062 103.703125 C-28.98129046 99.28716542 -28.78950823 94.95989166 -28.375 90.5625 C-27.74241675 83.53728973 -27.76467494 76.54867866 -27.8125 69.5 C-27.81701172 68.21867187 -27.82152344 66.93734375 -27.82617188 65.6171875 C-27.8378228 62.49474069 -27.85417975 59.37239682 -27.875 56.25 C-28.461604 56.26667725 -29.04820801 56.28335449 -29.65258789 56.30053711 C-34.14491236 56.37464965 -38.00626885 56.2525037 -42.3125 54.8125 C-43.13621094 54.54566406 -43.95992187 54.27882812 -44.80859375 54.00390625 C-46.875 53.25 -46.875 53.25 -48.875 52.25 C-47.52991896 45.08534482 -45.88595241 38.04088898 -44 31 C-43.75636719 30.04609375 -43.51273438 29.0921875 -43.26171875 28.109375 C-40.11833977 16.38277985 -40.11833977 16.38277985 -34.8671875 12.9296875 C-33.81917969 12.53136719 -33.81917969 12.53136719 -32.75 12.125 C-31.96882813 11.81175781 -31.18765625 11.49851562 -30.3828125 11.17578125 C-28.67087829 10.54380554 -26.9572527 9.91639749 -25.2421875 9.29296875 C-19.97846391 7.32103648 -16.69713229 5.53542106 -12.875 1.25 C-8.59317238 -0.17727587 -4.48554564 0.02552231 0 0 Z " fill="#F43A31" transform="translate(63.875,5.75)"/>
<path d="M0 0 C0.89847656 -0.020625 1.79695313 -0.04125 2.72265625 -0.0625 C9.07243641 -0.10001716 12.47616765 0.83488815 17.25 5.1875 C20.05187051 7.19753754 22.2708213 8.12508119 25.5 9.25 C36.94493283 13.25495631 36.94493283 13.25495631 40.08203125 18.55859375 C42.81215746 24.30533688 44.28512215 30.42475267 45.875 36.5625 C46.19082031 37.74134766 46.50664063 38.92019531 46.83203125 40.13476562 C49.125 48.81529018 49.125 48.81529018 49.125 52.25 C43.38451311 54.83884703 38.80900819 56.29812616 32.4609375 56.26953125 C31.64931152 56.26671143 30.83768555 56.2638916 30.00146484 56.26098633 C29.38223145 56.25736084 28.76299805 56.25373535 28.125 56.25 C28.09554961 60.66665225 28.07805184 65.08327867 28.0625 69.5 C28.04993164 71.35238281 28.04993164 71.35238281 28.03710938 73.2421875 C28.0192137 80.0425448 28.25887747 86.71628867 28.89575195 93.48583984 C29.24022334 97.63930635 29.27137892 101.77217301 29.25 105.9375 C29.25386719 106.73349609 29.25773437 107.52949219 29.26171875 108.34960938 C29.25185789 114.12314211 29.25185789 114.12314211 28.125 115.25 C19.5946941 116.45288325 11.08002852 116.40306308 2.48413086 116.38037109 C0.06422687 116.37500383 -2.35549221 116.38034737 -4.77539062 116.38671875 C-24.58220076 116.39639962 -24.58220076 116.39639962 -28.875 114.25 C-28.90250071 111.49992924 -28.92207451 108.75014533 -28.9375 106 C-28.94587891 105.24203125 -28.95425781 104.4840625 -28.96289062 103.703125 C-28.98129046 99.28716542 -28.78950823 94.95989166 -28.375 90.5625 C-27.74241675 83.53728973 -27.76467494 76.54867866 -27.8125 69.5 C-27.81701172 68.21867187 -27.82152344 66.93734375 -27.82617188 65.6171875 C-27.8378228 62.49474069 -27.85417975 59.37239682 -27.875 56.25 C-28.461604 56.26667725 -29.04820801 56.28335449 -29.65258789 56.30053711 C-34.14491236 56.37464965 -38.00626885 56.2525037 -42.3125 54.8125 C-43.13621094 54.54566406 -43.95992187 54.27882812 -44.80859375 54.00390625 C-46.875 53.25 -46.875 53.25 -48.875 52.25 C-47.52991896 45.08534482 -45.88595241 38.04088898 -44 31 C-43.75636719 30.04609375 -43.51273438 29.0921875 -43.26171875 28.109375 C-40.11833977 16.38277985 -40.11833977 16.38277985 -34.8671875 12.9296875 C-33.81917969 12.53136719 -33.81917969 12.53136719 -32.75 12.125 C-31.96882813 11.81175781 -31.18765625 11.49851562 -30.3828125 11.17578125 C-28.67087829 10.54380554 -26.9572527 9.91639749 -25.2421875 9.29296875 C-19.97846391 7.32103648 -16.69713229 5.53542106 -12.875 1.25 C-8.59317238 -0.17727587 -4.48554564 0.02552231 0 0 Z M-14.375 16.0625 C-17.85942348 18.50589819 -21.50872287 19.42823254 -25.60546875 20.44140625 C-28.09401401 21.32803081 -29.09227521 22.35679649 -30.875 24.25 C-31.865 24.58 -32.855 24.91 -33.875 25.25 C-33.565625 24.486875 -33.25625 23.72375 -32.9375 22.9375 C-32.19606407 21.06210323 -31.51271783 19.16315348 -30.875 17.25 C-33.22818306 18.2030637 -34.60980356 18.85175888 -36.03515625 20.9921875 C-38.98109083 27.95530561 -41.875 35.61578946 -41.875 43.25 C-39.4 44.24 -39.4 44.24 -36.875 45.25 C-36.875 45.91 -36.875 46.57 -36.875 47.25 C-38.855 47.25 -40.835 47.25 -42.875 47.25 C-42.545 48.24 -42.215 49.23 -41.875 50.25 C-37.12483365 52.4512966 -32.99418146 52.4265235 -27.875 52.25 C-28.19984375 50.82107422 -28.19984375 50.82107422 -28.53125 49.36328125 C-28.8096875 48.10902344 -29.088125 46.85476562 -29.375 45.5625 C-29.6534375 44.32113281 -29.931875 43.07976563 -30.21875 41.80078125 C-30.76854126 38.82601782 -31.01295705 36.25631398 -30.875 33.25 C-30.215 33.25 -29.555 33.25 -28.875 33.25 C-25.0023525 47.28628727 -23.39198577 60.74830744 -23.5 75.25 C-23.50459229 75.98651794 -23.50918457 76.72303589 -23.51391602 77.48187256 C-23.57839927 84.80214999 -23.84248435 91.99720711 -24.875 99.25 C-24.9362491 101.24917047 -24.9624994 103.25004774 -24.9375 105.25 C-24.91666667 106.91666667 -24.89583333 108.58333333 -24.875 110.25 C-16.8827425 112.26585811 -9.21586364 112.55306263 -1 112.5 C0.78470703 112.51160156 0.78470703 112.51160156 2.60546875 112.5234375 C10.30198825 112.50661451 17.58047629 111.76963566 25.125 110.25 C25.1345874 109.48300781 25.1441748 108.71601562 25.15405273 107.92578125 C25.17692057 106.09635417 25.19978841 104.26692708 25.22265625 102.4375 C25.1825105 99.20828896 25.1825105 99.20828896 24.64453125 95.875 C23.74117599 89.04281982 23.79290531 82.13122185 23.75 75.25 C23.74444092 74.50365295 23.73888184 73.75730591 23.7331543 72.98834229 C23.68182705 59.2880003 25.47233246 46.48897692 29.125 33.25 C29.785 33.25 30.445 33.25 31.125 33.25 C30.980625 34.52875 30.83625 35.8075 30.6875 37.125 C30.12685355 42.16280884 29.61998469 47.20536879 29.125 52.25 C34.09593824 51.83846263 38.57008386 51.45399168 43.125 49.25 C43.125 48.59 43.125 47.93 43.125 47.25 C41.145 47.25 39.165 47.25 37.125 47.25 C37.125 46.59 37.125 45.93 37.125 45.25 C38.775 44.59 40.425 43.93 42.125 43.25 C40.46440187 28.88097226 40.46440187 28.88097226 33.125 17.25 C32.465 17.25 31.805 17.25 31.125 17.25 C31.434375 17.8275 31.74375 18.405 32.0625 19 C33.05083364 21.09294184 33.6418613 22.99535275 34.125 25.25 C33.485625 24.816875 32.84625 24.38375 32.1875 23.9375 C29.62759942 22.52694254 27.56951595 21.70973666 24.8125 20.875 C20.622543 19.58309659 17.44731405 17.66104008 13.94921875 15.04296875 C12.10616808 13.99025698 12.10616808 13.99025698 10.109375 15.0078125 C9.45453125 15.41773438 8.7996875 15.82765625 8.125 16.25 C1.97181583 19.27065404 1.97181583 19.27065404 -1.4375 19.1875 C-4.57943655 17.97906286 -7.11086387 16.15418266 -9.875 14.25 C-12.11978066 14.05434414 -12.11978066 14.05434414 -14.375 16.0625 Z " fill="#060202" transform="translate(63.875,5.75)"/>
<path d="M0 0 C-0.309375 0.5775 -0.61875 1.155 -0.9375 1.75 C-1.92583364 3.84294184 -2.5168613 5.74535275 -3 8 C-2.01 8 -1.02 8 0 8 C-0.03480469 8.77601562 -0.06960937 9.55203125 -0.10546875 10.3515625 C-0.32353394 19.05340214 0.87848878 26.57709532 3 35 C-2.98993047 35.3152595 -6.63560356 34.68219822 -12 32 C-12 31.34 -12 30.68 -12 30 C-10.02 30 -8.04 30 -6 30 C-6 29.34 -6 28.68 -6 28 C-8.475 27.01 -8.475 27.01 -11 26 C-7.11023622 0 -7.11023622 0 0 0 Z " fill="#E4E4E3" transform="translate(33,23)"/>
<path d="M0 0 C2.35318306 0.9530637 3.73480356 1.60175888 5.16015625 3.7421875 C8.10609083 10.70530561 11 18.36578946 11 26 C9.35 26.66 7.7 27.32 6 28 C6 28.66 6 29.32 6 30 C7.98 30 9.96 30 12 30 C11.67 30.99 11.34 31.98 11 33 C6.46999732 34.43450085 2.75105336 35.10797849 -2 35 C-1.85485591 33.52076554 -1.70883578 32.04161704 -1.5625 30.5625 C-1.47226563 29.64855469 -1.38203125 28.73460938 -1.2890625 27.79296875 C-1.03270036 25.31595621 -0.73945796 22.84674155 -0.4375 20.375 C0.0358592 16.2257108 0.07588912 12.17390186 0 8 C0.99 8 1.98 8 3 8 C2.5359375 6.8553125 2.5359375 6.8553125 2.0625 5.6875 C1.32106407 3.81210323 0.63771783 1.91315348 0 0 Z " fill="#E2E1E1" transform="translate(95,23)"/>
<path d="M0 0 C1.43679883 2.87359765 0.53573454 4.84746118 0 8 C-0.09120264 10.5904991 -0.14043548 13.15261127 -0.1328125 15.7421875 C-0.13376923 16.46938995 -0.13472595 17.19659241 -0.13571167 17.9458313 C-0.13638896 19.47707201 -0.13456626 21.00831567 -0.13037109 22.53955078 C-0.12503204 24.86106957 -0.1303234 27.18239353 -0.13671875 29.50390625 C-0.13605759 31.00000042 -0.13477563 32.49609447 -0.1328125 33.9921875 C-0.13483673 34.67578339 -0.13686096 35.35937927 -0.13894653 36.06369019 C-0.11635584 40.79900239 0.36985705 45.31796682 1 50 C1.0612491 51.99917047 1.0874994 54.00004774 1.0625 56 C1.05347656 56.94875 1.04445313 57.8975 1.03515625 58.875 C1.02355469 59.57625 1.01195313 60.2775 1 61 C-0.32 61 -1.64 61 -3 61 C-3.8521905 50.75849636 -4.15565577 40.51226304 -4.23217773 30.23782349 C-4.24961951 28.23127266 -4.28187149 26.22486796 -4.31445312 24.21850586 C-4.34316775 16.1050872 -3.62737103 8.71768717 -1 1 C-0.67 0.67 -0.34 0.34 0 0 Z " fill="#DA2B22" transform="translate(88,55)"/>
<path d="M0 0 C1.01513672 -0.01836914 1.01513672 -0.01836914 2.05078125 -0.03710938 C5.76357044 -0.04809396 7.32983076 0.07405384 10.5 2.1875 C9.60446041 6.10548572 7.95505142 7.89859024 4.75 10.125 C1.73730875 11.85198576 0.86587238 12.23054381 -2.6875 11.8125 C-5.92547351 9.94167086 -8.14487421 8.09677303 -10.5 5.1875 C-10.5 3.8675 -10.5 2.5475 -10.5 1.1875 C-6.94709436 0.00319812 -3.69749544 0.00352142 0 0 Z " fill="#702428" transform="translate(64.5,9.8125)"/>
<path d="M0 0 C2 1 2 1 2.8515625 2.87890625 C8.11882306 21.15470424 4.94417268 42.25716796 4 61 C2.68 61 1.36 61 0 61 C-0.02757191 59.33343119 -0.04664803 57.66672149 -0.0625 56 C-0.07410156 55.071875 -0.08570313 54.14375 -0.09765625 53.1875 C0 50 0 50 0.49780273 46.296875 C1.02150631 42.21615577 1.14509868 38.17354282 1.1328125 34.0625 C1.13376923 33.33812744 1.13472595 32.61375488 1.13571167 31.86743164 C1.13638693 30.34814364 1.13457874 28.82885264 1.13037109 27.30957031 C1.12501347 25.00579242 1.13033847 22.70220945 1.13671875 20.3984375 C1.13605785 18.91145791 1.13477645 17.42447844 1.1328125 15.9375 C1.13483673 15.26017822 1.13686096 14.58285645 1.13894653 13.88500977 C1.11623686 9.17126457 0.65367057 4.65813306 0 0 Z " fill="#D92B22" transform="translate(39,55)"/>
<path d="M0 0 C3.5625 0.25 3.5625 0.25 6.5625 2.25 C7.47715066 6.51836974 7.23550597 10.20310182 4.875 13.875 C2.5625 15.25 2.5625 15.25 0 15.1875 C-2.62616828 14.17743528 -3.70596229 13.43668477 -5.4375 11.25 C-5.80078125 9.05859375 -5.80078125 9.05859375 -5.75 6.6875 C-5.74613281 5.90246094 -5.74226563 5.11742187 -5.73828125 4.30859375 C-5.17926918 0.48262803 -3.66535218 0.26657107 0 0 Z " fill="#090201" transform="translate(79.4375,36.75)"/>
<path d="M0 0 C0.7734375 0.2165625 0.7734375 0.2165625 1.5625 0.4375 C8.49364868 2.12533349 8.49364868 2.12533349 15 0 C17.25 0.375 17.25 0.375 19 1 C18 4 18 4 15.5 5.75 C11.01766903 7.35083249 7.58030482 7.17332287 3 6 C0.4375 4.4375 0.4375 4.4375 -1 3 C-0.67 2.01 -0.34 1.02 0 0 Z " fill="#100303" transform="translate(55,25)"/>
<path d="M0 0 C1.69433918 3.0469629 2.49467112 5.82821466 3.125 9.25 C3.29257812 10.14203125 3.46015625 11.0340625 3.6328125 11.953125 C3.75398438 12.62859375 3.87515625 13.3040625 4 14 C1.36 14 -1.28 14 -4 14 C-3.34 13.67 -2.68 13.34 -2 13 C-1.30662208 9.9600352 -1.30662208 9.9600352 -0.875 6.4375 C-0.70742188 5.23996094 -0.53984375 4.04242188 -0.3671875 2.80859375 C-0.24601562 1.88175781 -0.12484375 0.95492187 0 0 Z " fill="#BDB2B2" transform="translate(32,44)"/>
<path d="M0 0 C2.18994248 3.28491373 2.35277339 4.83095639 2.625 8.6875 C2.69976562 9.68136719 2.77453125 10.67523438 2.8515625 11.69921875 C2.90054688 12.45847656 2.94953125 13.21773437 3 14 C1.35 14 -0.3 14 -2 14 C-1.85795259 12.41632253 -1.71119847 10.83306682 -1.5625 9.25 C-1.48128906 8.36828125 -1.40007812 7.4865625 -1.31640625 6.578125 C-1.03761535 4.30649548 -0.61209423 2.20148177 0 0 Z " fill="#C8BDBD" transform="translate(95,44)"/>
<path d="M0 0 C0.33 0.99 0.66 1.98 1 3 C-4.66507011 6.08900201 -9.50857435 8.57664615 -16 9 C-16.33 8.34 -16.66 7.68 -17 7 C-16.10796875 6.74605469 -15.2159375 6.49210937 -14.296875 6.23046875 C-13.12640625 5.88628906 -11.9559375 5.54210937 -10.75 5.1875 C-9.58984375 4.85105469 -8.4296875 4.51460937 -7.234375 4.16796875 C-4.27798685 3.10038414 -2.35652294 2.03570917 0 0 Z " fill="#CD322B" transform="translate(49,15)"/>
<path d="M0 0 C0.928125 0.598125 1.85625 1.19625 2.8125 1.8125 C7.56251026 4.55890511 12.69982025 5.73485764 18 7 C17.67 7.66 17.34 8.32 17 9 C10.49200879 8.00481422 5.5332147 6.60861828 0 3 C0 2.01 0 1.02 0 0 Z " fill="#C5312A" transform="translate(78,15)"/>
<path d="M0 0 C1.32 0 2.64 0 4 0 C4 1.98 4 3.96 4 6 C2.68 6 1.36 6 0 6 C0 4.02 0 2.04 0 0 Z " fill="#E1E655" transform="translate(78,41)"/>
<path d="M0 0 C-0.309375 0.598125 -0.61875 1.19625 -0.9375 1.8125 C-2.10209704 4.08956772 -2.10209704 4.08956772 -3 7 C-3.99 7.33 -4.98 7.66 -6 8 C-5.62403791 5.21788056 -5.32681541 3.4120716 -3.5625 1.1875 C-2 0 -2 0 0 0 Z " fill="#CAC6C6" transform="translate(33,23)"/>
<path d="M0 0 C3.3 1.65 6.6 3.3 10 5 C10 5.33 10 5.66 10 6 C3.375 5.25 3.375 5.25 0 3 C0 2.01 0 1.02 0 0 Z " fill="#DD352D" transform="translate(78,15)"/>
</svg>
