<?xml version="1.0" encoding="UTF-8"?>
<svg version="1.1" xmlns="http://www.w3.org/2000/svg" width="128" height="128">
<path d="M0 0 C14.66593153 10.19568513 25.60840641 23.74932626 29.74780273 41.46484375 C31.85368154 54.22278914 31.54749005 68.90444137 26.125 80.75 C25.650625 81.81992188 25.17625 82.88984375 24.6875 83.9921875 C17.10463838 99.48601534 4.92032484 110.72303827 -11.3125 116.6875 C-27.72496406 122.19566484 -46.7787139 121.71320333 -62.42797852 114.23706055 C-78.71863635 105.97836091 -89.49612262 92.87979431 -95.875 75.75 C-100.17617326 61.8353272 -99.97024021 44.06519737 -93.875 30.75 C-93.1634375 29.14511719 -93.1634375 29.14511719 -92.4375 27.5078125 C-84.89523746 12.09693952 -72.63455422 0.5722872 -56.375 -5.1875 C-37.73814183 -11.3787986 -16.99837717 -10.14228624 0 0 Z " fill="#05C652" transform="translate(97.875,8.25)"/>
<path d="M0 0 C5.40799805 2.95561624 10.34827696 6.29231844 15.3125 9.9375 C16.90101303 11.09378934 18.48955558 12.25003812 20.078125 13.40625 C20.88830078 13.99792969 21.69847656 14.58960938 22.53320312 15.19921875 C26.53615386 18.12140448 30.54843155 21.03061472 34.5625 23.9375 C35.27510986 24.45626709 35.98771973 24.97503418 36.72192383 25.50952148 C37.41310303 26.01040283 38.10428223 26.51128418 38.81640625 27.02734375 C39.49179443 27.51726807 40.16718262 28.00719238 40.86303711 28.51196289 C42.38120962 29.56911604 43.93029622 30.58246926 45.49829102 31.56420898 C46.31612061 32.07669189 47.1339502 32.5891748 47.9765625 33.1171875 C48.72631348 33.57077637 49.47606445 34.02436523 50.24853516 34.49169922 C52 36 52 36 52.67358398 38.12817383 C53.45733548 49.74670429 45.48301154 63.15723038 38.26269531 71.63671875 C29.42764145 81.5100935 18.19123667 89.39798328 5 92 C1.53569803 90.8878223 -1.15610061 89.34728008 -4.046875 87.1640625 C-4.80154053 86.59993652 -5.55620605 86.03581055 -6.33374023 85.45458984 C-7.13110596 84.8508252 -7.92847168 84.24706055 -8.75 83.625 C-15.93174063 78.24899006 -23.17790711 72.99594394 -30.56738281 67.90869141 C-31.22448242 67.45155762 -31.88158203 66.99442383 -32.55859375 66.5234375 C-33.12892334 66.13075684 -33.69925293 65.73807617 -34.28686523 65.33349609 C-36.34271207 63.73323453 -38.15780793 61.84219207 -40 60 C-35.05 60 -30.1 60 -25 60 C-24.67 57.69 -24.34 55.38 -24 53 C-23.34 51.68 -22.68 50.36 -22 49 C-14.74 49 -7.48 49 0 49 C3 57 3 57 3 60 C8.28 60 13.56 60 19 60 C18.45996338 58.43113037 17.91992676 56.86226074 17.36352539 55.24584961 C15.3575458 49.41287716 13.35979968 43.57711266 11.36450195 37.74047852 C10.50121909 35.21666234 9.63434903 32.69416119 8.76586914 30.17211914 C7.51642521 26.54250955 6.27503621 22.91022982 5.03515625 19.27734375 C4.64658951 18.15416245 4.25802277 17.03098114 3.85768127 15.87376404 C2.05495272 10.56726263 0.50701986 5.59120526 0 0 Z " fill="#0C9F40" transform="translate(75,35)"/>
<path d="M0 0 C0.74886475 0.00523682 1.49772949 0.01047363 2.26928711 0.01586914 C3.07817383 0.0190918 3.88706055 0.02231445 4.72045898 0.02563477 C5.5705957 0.03401367 6.42073242 0.04239258 7.29663086 0.05102539 C8.15063477 0.05553711 9.00463867 0.06004883 9.88452148 0.06469727 C12.00108749 0.07652166 14.11761771 0.0944577 16.23413086 0.11352539 C21.041181 10.78333179 24.69577529 21.86223504 28.44726562 32.93457031 C29.55528658 36.20154659 30.67264891 39.46522882 31.79077148 42.72875977 C32.49771012 44.80604376 33.20411021 46.88351114 33.90991211 48.96118164 C34.24420731 49.93612076 34.5785025 50.91105988 34.92292786 51.9155426 C35.37921822 53.26856728 35.37921822 53.26856728 35.84472656 54.64892578 C36.11388382 55.44101944 36.38304108 56.2331131 36.66035461 57.04920959 C37.23413086 59.11352539 37.23413086 59.11352539 37.23413086 62.11352539 C31.95413086 62.11352539 26.67413086 62.11352539 21.23413086 62.11352539 C20.24413086 58.48352539 19.25413086 54.85352539 18.23413086 51.11352539 C10.97413086 51.44352539 3.71413086 51.77352539 -3.76586914 52.11352539 C-4.75586914 55.41352539 -5.74586914 58.71352539 -6.76586914 62.11352539 C-12.04586914 62.11352539 -17.32586914 62.11352539 -22.76586914 62.11352539 C-21.31052978 54.80387209 -19.12573702 47.92510568 -16.66821289 40.89477539 C-16.27388565 39.75568726 -15.87955841 38.61659912 -15.47328186 37.44299316 C-14.64439779 35.052071 -13.81309383 32.66198653 -12.97949219 30.27270508 C-11.69841985 26.59933371 -10.42591976 22.92307411 -9.15454102 19.24633789 C-8.34709923 16.92064309 -7.53917384 14.59511611 -6.73071289 12.26977539 C-6.34842026 11.16573364 -5.96612762 10.06169189 -5.57225037 8.92419434 C-5.21840775 7.91223999 -4.86456512 6.90028564 -4.5 5.85766602 C-4.18848495 4.96325806 -3.87696991 4.0688501 -3.55601501 3.14733887 C-2.39302877 0.15384465 -2.39302877 0.15384465 0 0 Z " fill="#F9FDFB" transform="translate(56.765869140625,32.886474609375)"/>
<path d="M0 0 C0.66 0 1.32 0 2 0 C3.00736628 2.93502595 4.00460504 5.87339461 5 8.8125 C5.28617188 9.64587891 5.57234375 10.47925781 5.8671875 11.33789062 C6.13789062 12.14033203 6.40859375 12.94277344 6.6875 13.76953125 C6.93886719 14.50792236 7.19023438 15.24631348 7.44921875 16.00708008 C8 18 8 18 8 21 C3.38 21 -1.24 21 -6 21 C-4.55613874 13.78069368 -2.42211826 6.94889267 0 0 Z " fill="#1CA54C" transform="translate(63,52)"/>
</svg>
