<?xml version="1.0" encoding="UTF-8"?>
<svg version="1.1" xmlns="http://www.w3.org/2000/svg" width="128" height="128">
<path d="M0 0 C0.91523437 0.40089844 1.83046875 0.80179687 2.7734375 1.21484375 C15.93053918 7.57226683 25.31249578 18.98008527 30.3125 32.56640625 C35.20884219 48.8705457 33.99989199 64.94003141 26 80 C26.99580078 80.65355469 26.99580078 80.65355469 28.01171875 81.3203125 C38.15302491 88.16014235 38.15302491 88.16014235 41 93 C41.88497616 97.87135524 41.56584969 101.72068765 39.5625 106.25 C27.64421832 119.04035107 8.04170248 123.45126077 -8.82958984 124.16113281 C-10.20663331 124.18101716 -11.58377601 124.19473991 -12.9609375 124.203125 C-13.70977203 124.20882507 -14.45860657 124.21452515 -15.23013306 124.22039795 C-16.81177381 124.22979745 -18.39343371 124.2363617 -19.97509766 124.24023438 C-22.33403264 124.2498333 -24.69205403 124.28085914 -27.05078125 124.3125 C-45.25652221 124.43890394 -68.80461963 122.41119848 -82.76171875 109.3515625 C-86.6196771 104.81929052 -87.53616341 101.50765515 -87.46875 95.66796875 C-86.47409145 90.00670384 -82.25118295 86.60910642 -77.75390625 83.39453125 C-75.86572077 82.19295867 -73.96855585 81.06353147 -72 80 C-72.33773437 79.23816406 -72.67546875 78.47632812 -73.0234375 77.69140625 C-80.09936481 61.31043002 -81.2958063 46.10735461 -75 29 C-68.06227281 13.44667137 -56.45725199 4.12361382 -41 -2 C-28.54140361 -6.47570306 -11.86889509 -5.71930141 0 0 Z " fill="#070807" transform="translate(87,4)"/>
<path d="M0 0 C1.9375 1.8203125 1.9375 1.8203125 4 4.125 C13.66446673 14.05792414 26.39447727 19.87847435 40.25830078 20.47070312 C54.78528471 20.66600204 69.16335108 16.60648161 79.79296875 6.2890625 C81.48123421 4.50852847 83.13651372 2.69572026 84.74609375 0.84375 C87 -1 87 -1 89.52734375 -0.95703125 C92.08976708 0.03474397 93.95591532 1.13252265 96.125 2.8125 C96.78757812 3.31394531 97.45015625 3.81539063 98.1328125 4.33203125 C100.78399855 6.70035017 102.71390121 8.82381609 103.5625 12.3125 C102.66114721 16.61896334 100.27554675 19.15027433 97 22 C93.80749383 24.05475131 90.50927967 25.56324784 87 27 C86.12730469 27.35964844 85.25460938 27.71929687 84.35546875 28.08984375 C57.73695934 37.95544514 22.03914242 37.46885305 -4 26 C-9.06547471 23.29603533 -14.22646417 20.16886222 -17 15 C-17.25 11.625 -17.25 11.625 -16 8 C-12.09352578 3.615182 -6.23731027 -2.75318774 0 0 Z " fill="#49A94D" transform="translate(21,90)"/>
<path d="M0 0 C6.6 0 13.2 0 20 0 C29.41750212 14.12625319 29.41750212 14.12625319 28.65722656 19.359375 C26.84401269 24.5286829 23.89869064 30.10130936 20 34 C18.5112814 34.08669432 17.018555 34.10703494 15.52734375 34.09765625 C14.62822266 34.09443359 13.72910156 34.09121094 12.80273438 34.08789062 C11.38444336 34.07532227 11.38444336 34.07532227 9.9375 34.0625 C8.98810547 34.05798828 8.03871094 34.05347656 7.06054688 34.04882812 C4.70696935 34.0370011 2.35351523 34.02052025 0 34 C-7.69350794 23.95569797 -7.69350794 23.95569797 -9 18 C-8.09932354 11.96726392 -4.3977701 6.91879353 -1 2 C-0.67 1.34 -0.34 0.68 0 0 Z " fill="#5E7A88" transform="translate(54,38)"/>
<path d="M0 0 C0.46148438 0.36351563 0.92296875 0.72703125 1.3984375 1.1015625 C15.71644946 12.13718437 29.77331083 17.96545468 48 16 C60.17864604 13.86936731 70.90103111 8.34072148 80 0 C82.56975601 1.80716009 84.92025869 3.63543624 87 6 C87.25 9.125 87.25 9.125 86 12 C82.59350704 15.11657867 79.28997613 16.96263425 75 18.625 C73.989375 19.02976562 72.97875 19.43453125 71.9375 19.8515625 C61.80120711 23.1493623 51.11573559 23.31739693 40.5625 23.25 C39.35529297 23.25773437 38.14808594 23.26546875 36.90429688 23.2734375 C22.53754066 23.24269003 6.69233383 22.29390638 -5 13 C-7 10 -7 10 -7 7.625 C-5.5520013 3.82400342 -3.24039013 2.41305648 0 0 Z " fill="#2E7C32" transform="translate(24,94)"/>
<path d="M0 0 C11.88111834 -1.35164408 11.88111834 -1.35164408 16.53515625 1.6171875 C21.19018913 6.65789748 25.39155367 13.28117357 27 20 C25.57643669 25.00568184 22.55416559 29.49660277 20 34 C13.4 34 6.8 34 0 34 C-2.289375 30.1946875 -2.289375 30.1946875 -4.625 26.3125 C-5.35710693 25.12781128 -5.35710693 25.12781128 -6.10400391 23.91918945 C-9.13576345 18.70427291 -9.13576345 18.70427291 -8.5 15.40625 C-8.005 14.6121875 -7.51 13.818125 -7 13 C-6.43023437 11.90042969 -5.86046875 10.80085938 -5.2734375 9.66796875 C-4.64695312 8.51941406 -4.02046875 7.37085938 -3.375 6.1875 C-3.05015625 5.59001953 -2.7253125 4.99253906 -2.390625 4.37695312 C-1.59620849 2.91662865 -0.79844624 1.45812509 0 0 Z " fill="#FCFCFC" transform="translate(86,19)"/>
<path d="M0 0 C1.26328125 0.03609375 2.5265625 0.0721875 3.828125 0.109375 C5.27445313 0.17898437 5.27445313 0.17898437 6.75 0.25 C8.31761479 2.77860471 9.85309278 5.31909111 11.375 7.875 C11.82101563 8.58785156 12.26703125 9.30070312 12.7265625 10.03515625 C15.89989762 15.43974262 15.89989762 15.43974262 15.171875 19.375 C14.70265625 20.32375 14.2334375 21.2725 13.75 22.25 C13.41226563 23.30960938 13.07453125 24.36921875 12.7265625 25.4609375 C11.11853592 29.22539278 9.81298811 31.49588464 6.75 34.25 C0.40275261 36.39807968 -6.89441152 36.34119363 -13.25 34.25 C-17.45143947 30.84567158 -19.14430399 27.51158793 -20.25 22.25 C-20.1484838 18.66309433 -19.07935076 16.30259133 -17.25 13.25 C-16.54617187 12.05503906 -16.54617187 12.05503906 -15.828125 10.8359375 C-14.38382294 8.55036671 -12.91548275 6.37970043 -11.25 4.25 C-10.67636719 3.50878906 -10.10273438 2.76757812 -9.51171875 2.00390625 C-6.30745385 -0.48092094 -3.99488897 -0.14795885 0 0 Z " fill="#FBFBFB" transform="translate(35.25,18.75)"/>
<path d="M0 0 C15.83190503 -1.22686266 15.83190503 -1.22686266 21.0324707 2.89819336 C23.53827408 6.83731626 25.08074427 10.25648897 25.01293945 14.98022461 C23.34498727 21.13286943 18.96117893 26.60407834 15.0480957 31.53100586 C14.41967773 32.41079102 14.41967773 32.41079102 13.77856445 33.30834961 C10.95964601 35.30004594 8.23481605 34.81137431 4.8605957 34.71850586 C3.58829102 34.69143555 2.31598633 34.66436523 1.00512695 34.63647461 C-0.45860352 34.58426758 -0.45860352 34.58426758 -1.9519043 34.53100586 C-11.31260191 20.89443403 -11.31260191 20.89443403 -10.72338867 15.40014648 C-9.26097474 10.96113783 -6.72476537 7.27410321 -3.9519043 3.53100586 C-1.9519043 0.53100586 -1.9519043 0.53100586 0 0 Z " fill="#FDFDFD" transform="translate(87.951904296875,57.468994140625)"/>
<path d="M0 0 C6.6 0 13.2 0 20 0 C29.41985646 13.18779904 29.41985646 13.18779904 28.65722656 18.29589844 C26.86692309 23.31525836 24.01412653 27.63658939 21 32 C20.67 32.66 20.34 33.32 20 34 C8.00647355 35.19768919 8.00647355 35.19768919 3.72265625 32.640625 C1.80706489 30.53825263 0.41963044 28.46646668 -1 26 C-1.59941406 25.00097656 -2.19882812 24.00195312 -2.81640625 22.97265625 C-7.25205148 14.94483299 -7.25205148 14.94483299 -6.31640625 11.4375 C-5.88199219 10.633125 -5.44757812 9.82875 -5 9 C-4.57460938 8.18917969 -4.14921875 7.37835938 -3.7109375 6.54296875 C-2.47395833 4.36197917 -1.23697917 2.18098958 0 0 Z " fill="#FBFBFB" transform="translate(22,58)"/>
<path d="M0 0 C12.35444584 -0.43512514 12.35444584 -0.43512514 17.23046875 3.140625 C19.51792891 5.92093372 21.31237504 8.64257177 22.23046875 12.140625 C20.47776993 18.45242731 16.33824565 24.44303401 13.23046875 30.140625 C6.63046875 30.140625 0.03046875 30.140625 -6.76953125 30.140625 C-9.05890625 26.3353125 -9.05890625 26.3353125 -11.39453125 22.453125 C-12.12663818 21.26843628 -12.12663818 21.26843628 -12.87353516 20.05981445 C-15.91560369 14.82716547 -15.91560369 14.82716547 -15.18359375 11.38671875 C-14.48363281 10.27490234 -14.48363281 10.27490234 -13.76953125 9.140625 C-13.41375 8.41359375 -13.05796875 7.6865625 -12.69140625 6.9375 C-9.54608364 1.44366983 -9.54608364 1.44366983 -6.20703125 0.140625 C-4.13748991 0.140625 -2.06687867 0.10494729 0 0 Z " fill="#FAFAFA" transform="translate(60.76953125,3.859375)"/>
<path d="M0 0 C6.6 0 13.2 0 20 0 C21.52625 2.536875 23.0525 5.07375 24.625 7.6875 C25.11307129 8.47729248 25.60114258 9.26708496 26.10400391 10.08081055 C29.14768568 15.31623447 29.14768568 15.31623447 28.3984375 18.78515625 C27.93695313 19.51605469 27.47546875 20.24695313 27 21 C26.67 21.65484375 26.34 22.3096875 26 22.984375 C23.22222222 27.88888889 23.22222222 27.88888889 21 29 C17.23785257 29.40048797 13.46783711 29.46344181 9.6875 29.5625 C8.11838867 29.6562793 8.11838867 29.6562793 6.51757812 29.75195312 C-1.01789061 29.91024114 -1.01789061 29.91024114 -3.77490234 27.35498047 C-5.09777294 25.2893605 -6.0639939 23.26346706 -7 21 C-7.52335937 20.18144531 -8.04671875 19.36289063 -8.5859375 18.51953125 C-9.28733009 14.25162351 -6.81686966 11.23436337 -4.625 7.6875 C-2.335625 3.8821875 -2.335625 3.8821875 0 0 Z " fill="#FBFBFB" transform="translate(54,77)"/>
<path d="M0 0 C11.88111834 -1.35164408 11.88111834 -1.35164408 16.53515625 1.6171875 C21.19018913 6.65789748 25.39155367 13.28117357 27 20 C26.1171875 22.828125 26.1171875 22.828125 25 25 C22.61198171 22.61198171 21.95638934 20.58617618 20.75 17.4375 C17.54898693 8.94439235 17.54898693 8.94439235 12 2 C7.9592784 0.97559171 4.15278355 0.83200714 0 1 C0 0.67 0 0.34 0 0 Z " fill="#C5CDD0" transform="translate(86,19)"/>
<path d="M0 0 C0.99 0.99 1.98 1.98 3 3 C1.12467521 10.39413775 -2.27153412 16.0464316 -7 22 C-7.41894531 22.58652344 -7.83789062 23.17304687 -8.26953125 23.77734375 C-11.0884497 25.76904008 -13.81327965 25.28036845 -17.1875 25.1875 C-19.09595703 25.14689453 -19.09595703 25.14689453 -21.04296875 25.10546875 C-22.01878906 25.07066406 -22.99460937 25.03585938 -24 25 C-24 24.67 -24 24.34 -24 24 C-23.20335938 24.03222656 -22.40671875 24.06445312 -21.5859375 24.09765625 C-15.3082781 24.15167089 -15.3082781 24.15167089 -10.0078125 21.24609375 C-8.43022666 18.89606304 -7.18291123 16.5708604 -6 14 C-5.61328125 13.20078125 -5.2265625 12.4015625 -4.828125 11.578125 C-3.82217471 9.40585553 -2.89337449 7.22055102 -2 5 C-1.5875 3.989375 -1.175 2.97875 -0.75 1.9375 C-0.5025 1.298125 -0.255 0.65875 0 0 Z " fill="#C4CBCE" transform="translate(110,67)"/>
<path d="M0 0 C0.66 0 1.32 0 2 0 C2 5.61 2 11.22 2 17 C1.34 17 0.68 17 0 17 C-1.7545894 14.08468223 -3.18278832 11.31481487 -4 8 C-3.19840146 4.94891555 -1.81582336 2.56310451 0 0 Z " fill="#35444C" transform="translate(113,47)"/>
<path d="M0 0 C0.66 0 1.32 0 2 0 C3.71987259 2.91716852 5.16618969 5.70644926 6 9 C5.14607507 11.94604101 3.90208901 13.51671713 2 16 C1.34 16 0.68 16 0 16 C0 10.72 0 5.44 0 0 Z " fill="#587380" transform="translate(13,47)"/>
<path d="M0 0 C3.05071175 -0.287803 5.96060262 -0.4472872 9 0 C11.10361696 2.4223468 12 3.78245634 12 7 C7.69235185 5.43358249 3.93828536 3.31663844 0 1 C0 0.67 0 0.34 0 0 Z " fill="#56707D" transform="translate(33,96)"/>
<path d="M0 0 C0 3 0 3 -2 7 C-4.97 7 -7.94 7 -11 7 C-7.53258866 4.04250209 -4.13126473 1.92151848 0 0 Z " fill="#56707C" transform="translate(44,8)"/>
<path d="M0 0 C4.19360449 0.67097672 7.40334352 2.8558394 11 5 C11 5.33 11 5.66 11 6 C8.03 6 5.06 6 2 6 C1.34 4.02 0.68 2.04 0 0 Z " fill="#485E68" transform="translate(84,9)"/>
<path d="M0 0 C2.64 0 5.28 0 8 0 C4.98112756 3.48331435 2.43090471 4.79157144 -2 6 C-1.34 4.02 -0.68 2.04 0 0 Z " fill="#4D6570" transform="translate(86,96)"/>
</svg>
