<?xml version="1.0" encoding="UTF-8"?>
<svg version="1.1" xmlns="http://www.w3.org/2000/svg" width="128" height="128">
<path d="M0 0 C1.30162582 -0.01583633 2.60325165 -0.03167267 3.94432068 -0.04798889 C5.35749674 -0.04414706 6.77066998 -0.03910781 8.18383789 -0.03295898 C9.64205827 -0.03819756 11.10027526 -0.0444749 12.55848694 -0.05174255 C15.61076837 -0.06213616 18.66258331 -0.05760132 21.71484375 -0.04296875 C25.61686602 -0.02578908 29.51741459 -0.04926901 33.41927242 -0.08445835 C36.42975022 -0.10647305 39.43987764 -0.10498114 42.45041084 -0.09669304 C43.88846006 -0.09587559 45.32653554 -0.10269962 46.7645092 -0.11746407 C59.38953046 -0.22722001 59.38953046 -0.22722001 63.27197266 2.82275391 C66.13937988 6.36057171 67.71385907 8.9540356 67.73641968 13.54269409 C67.74494965 14.33045227 67.75347961 15.11821045 67.76226807 15.92984009 C67.76136169 16.78500214 67.76045532 17.64016418 67.75952148 18.52124023 C67.76623871 19.42902222 67.77295593 20.3368042 67.77987671 21.27209473 C67.79887608 24.2733304 67.80278188 27.27434269 67.80493164 30.27563477 C67.81135817 32.36304822 67.81808642 34.45046076 67.82510376 36.53787231 C67.83708135 40.91418547 67.84078408 45.29041966 67.83959961 49.66674805 C67.83939639 55.2712655 67.86670024 60.87527607 67.90114403 66.47967339 C67.92339423 70.79141561 67.92743772 75.10303549 67.92638016 79.41482925 C67.92873888 81.48087435 67.93757763 83.54692268 67.95304489 85.61291122 C67.97266668 88.50458911 67.96688165 91.39516922 67.95483398 94.28686523 C67.966073 95.13797882 67.97731201 95.98909241 67.9888916 96.86599731 C67.93209228 102.23786326 67.00164444 105.24949838 63.46899414 109.53344727 C59.19007516 113.53630696 54.52916477 113.65630886 48.87182617 113.67871094 C47.77363556 113.68509079 46.67544495 113.69147064 45.54397583 113.69804382 C43.77822708 113.69971306 43.77822708 113.69971306 41.97680664 113.70141602 C40.75750458 113.70474442 39.53820251 113.70807281 38.2819519 113.71150208 C35.70481747 113.71656069 33.1276765 113.71891073 30.55053711 113.71875 C26.61569383 113.72093521 22.68113154 113.73909912 18.74633789 113.75805664 C16.23982843 113.76099105 13.73331764 113.76297553 11.22680664 113.76391602 C9.46713058 113.77469429 9.46713058 113.77469429 7.67190552 113.78569031 C-5.84702471 113.74803261 -5.84702471 113.74803261 -10.27319336 110.09594727 C-14.21904467 104.65339374 -14.68346035 101.48664557 -14.69213867 94.86450195 C-14.69710358 93.96676559 -14.70206848 93.06902924 -14.70718384 92.14408875 C-14.72182715 89.1644922 -14.72861176 86.18494893 -14.73413086 83.20532227 C-14.73988139 81.1374715 -14.74563913 79.06962075 -14.75140381 77.00177002 C-14.76192056 72.66060131 -14.76775853 68.31945115 -14.77124023 63.97827148 C-14.77672041 58.41863821 -14.80073548 52.85925042 -14.82921219 47.29969406 C-14.84784903 43.0257089 -14.85304477 38.75178268 -14.85457611 34.47776031 C-14.85760179 32.42846589 -14.86562743 30.37917248 -14.87876129 28.32991791 C-14.89584028 25.45974663 -14.89393671 22.59017236 -14.88745117 19.7199707 C-14.89666595 18.87506577 -14.90588074 18.03016083 -14.91537476 17.15965271 C-14.87123574 10.91525929 -13.74311826 6.80606892 -9.25169373 2.19178772 C-5.92591647 0.16462723 -3.87989694 0.02103578 0 0 Z " fill="#FE0000" transform="translate(37.531005859375,7.466552734375)"/>
<path d="M0 0 C1.30162582 -0.01583633 2.60325165 -0.03167267 3.94432068 -0.04798889 C5.35749674 -0.04414706 6.77066998 -0.03910781 8.18383789 -0.03295898 C9.64205827 -0.03819756 11.10027526 -0.0444749 12.55848694 -0.05174255 C15.61076837 -0.06213616 18.66258331 -0.05760132 21.71484375 -0.04296875 C25.61686602 -0.02578908 29.51741459 -0.04926901 33.41927242 -0.08445835 C36.42975022 -0.10647305 39.43987764 -0.10498114 42.45041084 -0.09669304 C43.88846006 -0.09587559 45.32653554 -0.10269962 46.7645092 -0.11746407 C59.38953046 -0.22722001 59.38953046 -0.22722001 63.27197266 2.82275391 C66.13937988 6.36057171 67.71385907 8.9540356 67.73641968 13.54269409 C67.74494965 14.33045227 67.75347961 15.11821045 67.76226807 15.92984009 C67.76136169 16.78500214 67.76045532 17.64016418 67.75952148 18.52124023 C67.76623871 19.42902222 67.77295593 20.3368042 67.77987671 21.27209473 C67.79887608 24.2733304 67.80278188 27.27434269 67.80493164 30.27563477 C67.81135817 32.36304822 67.81808642 34.45046076 67.82510376 36.53787231 C67.83708135 40.91418547 67.84078408 45.29041966 67.83959961 49.66674805 C67.83939639 55.2712655 67.86670024 60.87527607 67.90114403 66.47967339 C67.92339423 70.79141561 67.92743772 75.10303549 67.92638016 79.41482925 C67.92873888 81.48087435 67.93757763 83.54692268 67.95304489 85.61291122 C67.97266668 88.50458911 67.96688165 91.39516922 67.95483398 94.28686523 C67.966073 95.13797882 67.97731201 95.98909241 67.9888916 96.86599731 C67.93209228 102.23786326 67.00164444 105.24949838 63.46899414 109.53344727 C59.19007516 113.53630696 54.52916477 113.65630886 48.87182617 113.67871094 C47.77363556 113.68509079 46.67544495 113.69147064 45.54397583 113.69804382 C43.77822708 113.69971306 43.77822708 113.69971306 41.97680664 113.70141602 C40.75750458 113.70474442 39.53820251 113.70807281 38.2819519 113.71150208 C35.70481747 113.71656069 33.1276765 113.71891073 30.55053711 113.71875 C26.61569383 113.72093521 22.68113154 113.73909912 18.74633789 113.75805664 C16.23982843 113.76099105 13.73331764 113.76297553 11.22680664 113.76391602 C9.46713058 113.77469429 9.46713058 113.77469429 7.67190552 113.78569031 C-5.84702471 113.74803261 -5.84702471 113.74803261 -10.27319336 110.09594727 C-14.21904467 104.65339374 -14.68346035 101.48664557 -14.69213867 94.86450195 C-14.69710358 93.96676559 -14.70206848 93.06902924 -14.70718384 92.14408875 C-14.72182715 89.1644922 -14.72861176 86.18494893 -14.73413086 83.20532227 C-14.73988139 81.1374715 -14.74563913 79.06962075 -14.75140381 77.00177002 C-14.76192056 72.66060131 -14.76775853 68.31945115 -14.77124023 63.97827148 C-14.77672041 58.41863821 -14.80073548 52.85925042 -14.82921219 47.29969406 C-14.84784903 43.0257089 -14.85304477 38.75178268 -14.85457611 34.47776031 C-14.85760179 32.42846589 -14.86562743 30.37917248 -14.87876129 28.32991791 C-14.89584028 25.45974663 -14.89393671 22.59017236 -14.88745117 19.7199707 C-14.89666595 18.87506577 -14.90588074 18.03016083 -14.91537476 17.15965271 C-14.87123574 10.91525929 -13.74311826 6.80606892 -9.25169373 2.19178772 C-5.92591647 0.16462723 -3.87989694 0.02103578 0 0 Z M-9.53100586 9.53344727 C-10.23784342 12.58005549 -10.21495752 15.53358095 -10.17797852 18.65063477 C-10.18674011 19.56016907 -10.19550171 20.46970337 -10.20452881 21.40679932 C-10.22650273 24.40783652 -10.21197702 27.40739556 -10.19506836 30.40844727 C-10.19843706 32.49682904 -10.20329014 34.58520891 -10.20956421 36.67358398 C-10.21693283 41.04828577 -10.20623004 45.42247677 -10.18286133 49.79711914 C-10.15437393 55.403032 -10.1707779 61.007748 -10.20072365 66.61361694 C-10.21879667 70.92538461 -10.21303849 75.23686879 -10.20008469 79.54864502 C-10.19675071 81.6155003 -10.20083745 83.68238138 -10.21248245 85.74920654 C-10.22519095 88.6389171 -10.20581388 91.52669321 -10.17797852 94.41625977 C-10.18809967 95.26939758 -10.19822083 96.1225354 -10.20864868 97.00152588 C-10.13384942 101.19573391 -9.86995888 103.05774356 -7.37106323 106.56481934 C-4.06777881 108.85453997 -2.42823229 109.15642386 1.55688477 109.14868164 C3.3640094 109.16263977 3.3640094 109.16263977 5.2076416 109.17687988 C7.14685486 109.15228699 7.14685486 109.15228699 9.12524414 109.12719727 C10.4737538 109.12548472 11.82226678 109.12555331 13.17077637 109.12731934 C15.99202485 109.12566885 18.81247607 109.10702339 21.63354492 109.07543945 C25.24170571 109.03576138 28.84882338 109.0313956 32.45716095 109.03890228 C35.24026978 109.0419784 38.02314605 109.02982894 40.80619812 109.01277161 C42.78089041 109.00236513 44.755627 109.00189457 46.73034668 109.00158691 C48.53747131 108.97771912 48.53747131 108.97771912 50.38110352 108.95336914 C51.43857788 108.94494995 52.49605225 108.93653076 53.58557129 108.92785645 C56.8905472 108.4757851 58.79248894 107.49452075 61.46899414 105.53344727 C63.14173706 102.18796143 62.62537464 98.42041433 62.63012695 94.7409668 C62.63509186 93.83026428 62.64005676 92.91956177 62.64517212 91.98126221 C62.65981285 88.95958712 62.66659878 85.93796453 62.67211914 82.91625977 C62.67786884 80.82119749 62.68362659 78.72613523 62.68939209 76.631073 C62.69990739 72.23443353 62.70574666 67.83781239 62.70922852 63.44116211 C62.71471561 57.80286334 62.73874611 52.16480578 62.76720047 46.52658272 C62.78580842 42.19777719 62.79103146 37.86902999 62.79256439 33.54018784 C62.79559541 31.46132971 62.80363898 29.38247271 62.81674957 27.30365372 C62.83377212 24.39715379 62.83193911 21.49124611 62.82543945 18.5847168 C62.83465424 17.72327057 62.84386902 16.86182434 62.85336304 15.97427368 C62.82877444 12.47068813 62.80192798 10.15782191 61.13421631 7.03024292 C57.95890619 4.176095 54.67772964 4.38986109 50.6081543 4.34057617 C49.40325348 4.32451324 48.19835266 4.30845032 46.9569397 4.29190063 C41.45640271 4.24747873 35.9559959 4.20596432 30.45532227 4.18334961 C27.55103104 4.17000291 24.64744122 4.142134 21.7434082 4.10131836 C18.23205962 4.05197276 14.72134771 4.02722718 11.20966721 4.02012253 C9.22594309 4.01016233 7.24238881 3.97592642 5.25894165 3.9413147 C3.44213394 3.94558975 3.44213394 3.94558975 1.58862305 3.94995117 C0.52511627 3.94186432 -0.5383905 3.93377747 -1.63412476 3.92544556 C-5.72773826 4.78461924 -7.11343542 6.13516622 -9.53100586 9.53344727 Z " fill="#090000" transform="translate(37.531005859375,7.466552734375)"/>
</svg>
