<?xml version="1.0" encoding="UTF-8"?>
<svg version="1.1" xmlns="http://www.w3.org/2000/svg" width="128" height="128">
<path d="M0 0 C0.51949219 -0.58910156 1.03898437 -1.17820312 1.57421875 -1.78515625 C2.27160156 -2.53667969 2.96898438 -3.28820312 3.6875 -4.0625 C4.37199219 -4.81660156 5.05648437 -5.57070312 5.76171875 -6.34765625 C8 -8 8 -8 10.64453125 -7.93359375 C13 -7 13 -7 15 -4 C15.52560586 -1.41036277 15.95918309 1.12590096 16.32421875 3.73828125 C16.49000175 4.87586128 16.49000175 4.87586128 16.65913391 6.03642273 C16.89060929 7.64051303 17.11815026 9.2451753 17.34204102 10.8503418 C17.68501299 13.29477457 18.04574394 15.73612456 18.40820312 18.17773438 C18.63129092 19.73942907 18.85333019 21.30127398 19.07421875 22.86328125 C19.23660286 23.95108635 19.23660286 23.95108635 19.40226746 25.06086731 C19.97470364 29.27877441 19.93044831 32.8445405 19 37 C14.18317472 38.06655262 9.9778836 37.83708751 5.15234375 37.109375 C4.41802628 37.00409485 3.6837088 36.8988147 2.92713928 36.79034424 C1.38263768 36.56615448 -0.16119213 36.33729194 -1.7043457 36.10400391 C-4.05683007 35.75085116 -6.41169805 35.41948519 -8.76757812 35.08984375 C-10.27363038 34.86849593 -11.77949723 34.64588211 -13.28515625 34.421875 C-14.33377586 34.27634186 -14.33377586 34.27634186 -15.40357971 34.12786865 C-19.54875421 33.48125389 -22.55930441 32.40619728 -26 30 C-25.68232368 24.59950264 -22.80003673 22.47662935 -19 19 C-28.94164845 14.69372447 -38.84448657 15.67877542 -49 19 C-58.73090996 23.88645694 -67.33844597 32.65345106 -71 43 C-71.79886765 46.4875201 -72.41236557 50.00546131 -72.96118164 53.5402832 C-73.80502283 58.80502283 -73.80502283 58.80502283 -76 61 C-78.57421875 61.01171875 -78.57421875 61.01171875 -81.6875 60.6875 C-82.76128906 60.57664062 -83.83507812 60.46578125 -84.94140625 60.3515625 C-86.45541016 60.17753906 -86.45541016 60.17753906 -88 60 C-88.75152344 59.92523438 -89.50304687 59.85046875 -90.27734375 59.7734375 C-94.73553103 59.26446897 -94.73553103 59.26446897 -97 57 C-98.84883184 42.25736689 -93.37024648 28.04641633 -84.74804688 16.29345703 C-63.98145385 -9.89970046 -28.98061716 -15.06461959 0 0 Z " fill="#32D736" transform="translate(97,8)"/>
<path d="M0 0 C0.66837891 0.08314453 1.33675781 0.16628906 2.02539062 0.25195312 C5.55467203 0.73115189 8.49947288 1.33088254 11.5625 3.1875 C12.39126737 20.49952951 6.91153864 35.74016523 -4.6875 48.625 C-15.50975768 60.01437928 -30.24267127 67.92719206 -46.17578125 68.4609375 C-58.68902693 68.77844112 -70.42239255 68.26051745 -81.6171875 61.9609375 C-83.4273817 61.02311687 -83.4273817 61.02311687 -85.50390625 61.37109375 C-87.76196983 62.32449837 -88.79200436 63.39513253 -90.375 65.25 C-93.09834141 68.11812665 -93.09834141 68.11812665 -96.1875 68.75 C-98.4375 68.1875 -98.4375 68.1875 -100.4375 65.1875 C-100.95124135 62.58588456 -101.37275189 60.03751332 -101.7265625 57.4140625 C-101.88878799 56.27292496 -101.88878799 56.27292496 -102.05429077 55.10873413 C-102.2813673 53.50040758 -102.50471764 51.89155116 -102.72460938 50.28222656 C-103.06044848 47.82749507 -103.40811727 45.37466686 -103.7578125 42.921875 C-103.9772639 41.35686903 -104.19603621 39.79176765 -104.4140625 38.2265625 C-104.51715729 37.49619781 -104.62025208 36.76583313 -104.72647095 36.01333618 C-105.73748035 28.55704671 -105.73748035 28.55704671 -105.4375 25.1875 C-103.4375 23.1875 -103.4375 23.1875 -99.87109375 22.91796875 C-93.11681947 23.07353485 -86.43819003 24.14695691 -79.76928711 25.15893555 C-77.48282318 25.5025816 -75.19394611 25.82483445 -72.90429688 26.14648438 C-71.44772372 26.36329103 -69.99133549 26.5813445 -68.53515625 26.80078125 C-67.85187759 26.89466629 -67.16859894 26.98855133 -66.46461487 27.08528137 C-64.55102539 27.38793945 -64.55102539 27.38793945 -61.4375 28.1875 C-59.4375 31.1875 -59.4375 31.1875 -59.62109375 33.171875 C-60.56668644 35.50644834 -61.6682455 36.722666 -63.5 38.4375 C-64.32177734 39.21867187 -64.32177734 39.21867187 -65.16015625 40.015625 C-65.58167969 40.40234375 -66.00320312 40.7890625 -66.4375 41.1875 C-56.4980939 45.49280425 -46.58193235 44.53435482 -36.4375 41.1875 C-28.53329708 37.49021166 -23.16553564 32.45942438 -18.4375 25.1875 C-17.91285156 24.41535156 -17.38820313 23.64320312 -16.84765625 22.84765625 C-15.16377915 19.67114572 -14.54532236 16.77781083 -13.875 13.25 C-12.14398589 4.26241826 -12.14398589 4.26241826 -10.4375 0.1875 C-6.7375563 -1.04581457 -3.76929808 -0.53124335 0 0 Z " fill="#E50027" transform="translate(116.4375,59.8125)"/>
<path d="M0 0 C12.69305158 0 12.69305158 0 19.3125 2.3125 C20.30733398 2.63250977 20.30733398 2.63250977 21.32226562 2.95898438 C25.40812135 4.31018049 29.19865802 5.99029827 33 8 C33.51949219 7.41089844 34.03898437 6.82179688 34.57421875 6.21484375 C35.27160156 5.46332031 35.96898437 4.71179688 36.6875 3.9375 C37.37199219 3.18339844 38.05648437 2.42929687 38.76171875 1.65234375 C41 0 41 0 43.64453125 0.06640625 C46 1 46 1 48 4 C48.52560586 6.58963723 48.95918309 9.12590096 49.32421875 11.73828125 C49.49000175 12.87586128 49.49000175 12.87586128 49.65913391 14.03642273 C49.89060929 15.64051303 50.11815026 17.2451753 50.34204102 18.8503418 C50.68501299 21.29477457 51.04574394 23.73612456 51.40820312 26.17773438 C51.63129092 27.73942907 51.85333019 29.30127398 52.07421875 30.86328125 C52.23660286 31.95108635 52.23660286 31.95108635 52.40226746 33.06086731 C52.97470364 37.27877441 52.93044831 40.8445405 52 45 C47.18317472 46.06655262 42.9778836 45.83708751 38.15234375 45.109375 C37.41802628 45.00409485 36.6837088 44.8988147 35.92713928 44.79034424 C34.38263768 44.56615448 32.83880787 44.33729194 31.2956543 44.10400391 C28.94316993 43.75085116 26.58830195 43.41948519 24.23242188 43.08984375 C22.72636962 42.86849593 21.22050277 42.64588211 19.71484375 42.421875 C19.01576401 42.32485291 18.31668427 42.22783081 17.59642029 42.12786865 C13.45124579 41.48125389 10.44069559 40.40619728 7 38 C7.31767632 32.59950264 10.19996327 30.47662935 14 27 C9.29091724 24.87331746 5.31768975 24.18170883 0 23 C0 15.41 0 7.82 0 0 Z " fill="#11BB65" transform="translate(64,0)"/>
<path d="M0 0 C6.75427428 0.1555661 13.43290372 1.22898816 20.10180664 2.2409668 C22.38827057 2.58461285 24.67714764 2.9068657 26.96679688 3.22851562 C28.42337003 3.44532228 29.87975826 3.66337575 31.3359375 3.8828125 C32.01921616 3.97669754 32.70249481 4.07058258 33.40647888 4.16731262 C35.32006836 4.4699707 35.32006836 4.4699707 38.43359375 5.26953125 C40.43359375 8.26953125 40.43359375 8.26953125 40.25 10.25390625 C39.30440731 12.58847959 38.20284825 13.80469725 36.37109375 15.51953125 C35.82324219 16.0403125 35.27539062 16.56109375 34.7109375 17.09765625 C34.28941406 17.484375 33.86789063 17.87109375 33.43359375 18.26953125 C38.14267651 20.39621379 42.115904 21.08782242 47.43359375 22.26953125 C47.43359375 29.85953125 47.43359375 37.44953125 47.43359375 45.26953125 C34.75416959 45.26953125 34.75416959 45.26953125 27.99609375 42.89453125 C27.31611328 42.6728125 26.63613281 42.45109375 25.93554688 42.22265625 C23.24504074 41.32845089 20.69718702 40.41499397 18.2109375 39.04296875 C16.43834292 38.10297679 16.43834292 38.10297679 14.3671875 38.453125 C12.10912392 39.40652962 11.07908939 40.47716378 9.49609375 42.33203125 C6.77275234 45.2001579 6.77275234 45.2001579 3.68359375 45.83203125 C1.43359375 45.26953125 1.43359375 45.26953125 -0.56640625 42.26953125 C-1.0801476 39.66791581 -1.50165814 37.11954457 -1.85546875 34.49609375 C-2.01769424 33.35495621 -2.01769424 33.35495621 -2.18319702 32.19076538 C-2.41027355 30.58243883 -2.63362389 28.97358241 -2.85351562 27.36425781 C-3.18935473 24.90952632 -3.53702352 22.45669811 -3.88671875 20.00390625 C-4.10617015 18.43890028 -4.32494246 16.8737989 -4.54296875 15.30859375 C-4.64606354 14.57822906 -4.74915833 13.84786438 -4.8553772 13.09536743 C-5.8663866 5.63907796 -5.8663866 5.63907796 -5.56640625 2.26953125 C-3.56640625 0.26953125 -3.56640625 0.26953125 0 0 Z " fill="#FD003A" transform="translate(16.56640625,82.73046875)"/>
</svg>
