<?xml version="1.0" encoding="UTF-8"?>
<svg version="1.1" xmlns="http://www.w3.org/2000/svg" width="128" height="128">
<path d="M0 0 C1.30162582 -0.01583633 2.60325165 -0.03167267 3.94432068 -0.04798889 C5.35749674 -0.04414706 6.77066998 -0.03910781 8.18383789 -0.03295898 C9.64205827 -0.03819756 11.10027526 -0.0444749 12.55848694 -0.05174255 C15.61076837 -0.06213616 18.66258331 -0.05760132 21.71484375 -0.04296875 C25.61686602 -0.02578908 29.51741459 -0.04926901 33.41927242 -0.08445835 C36.42975022 -0.10647305 39.43987764 -0.10498114 42.45041084 -0.09669304 C43.88846006 -0.09587559 45.32653554 -0.10269962 46.7645092 -0.11746407 C59.38953046 -0.22722001 59.38953046 -0.22722001 63.27197266 2.82275391 C66.13937988 6.36057171 67.71385907 8.9540356 67.73641968 13.54269409 C67.74494965 14.33045227 67.75347961 15.11821045 67.76226807 15.92984009 C67.76136169 16.78500214 67.76045532 17.64016418 67.75952148 18.52124023 C67.76623871 19.42902222 67.77295593 20.3368042 67.77987671 21.27209473 C67.79887608 24.2733304 67.80278188 27.27434269 67.80493164 30.27563477 C67.81135817 32.36304822 67.81808642 34.45046076 67.82510376 36.53787231 C67.83708135 40.91418547 67.84078408 45.29041966 67.83959961 49.66674805 C67.83939639 55.2712655 67.86670024 60.87527607 67.90114403 66.47967339 C67.92339423 70.79141561 67.92743772 75.10303549 67.92638016 79.41482925 C67.92873888 81.48087435 67.93757763 83.54692268 67.95304489 85.61291122 C67.97266668 88.50458911 67.96688165 91.39516922 67.95483398 94.28686523 C67.966073 95.13797882 67.97731201 95.98909241 67.9888916 96.86599731 C67.93209228 102.23786326 67.00164444 105.24949838 63.46899414 109.53344727 C59.19007516 113.53630696 54.52916477 113.65630886 48.87182617 113.67871094 C47.77363556 113.68509079 46.67544495 113.69147064 45.54397583 113.69804382 C43.77822708 113.69971306 43.77822708 113.69971306 41.97680664 113.70141602 C40.75750458 113.70474442 39.53820251 113.70807281 38.2819519 113.71150208 C35.70481747 113.71656069 33.1276765 113.71891073 30.55053711 113.71875 C26.61569383 113.72093521 22.68113154 113.73909912 18.74633789 113.75805664 C16.23982843 113.76099105 13.73331764 113.76297553 11.22680664 113.76391602 C9.46713058 113.77469429 9.46713058 113.77469429 7.67190552 113.78569031 C-5.84702471 113.74803261 -5.84702471 113.74803261 -10.27319336 110.09594727 C-14.21904467 104.65339374 -14.68346035 101.48664557 -14.69213867 94.86450195 C-14.69710358 93.96676559 -14.70206848 93.06902924 -14.70718384 92.14408875 C-14.72182715 89.1644922 -14.72861176 86.18494893 -14.73413086 83.20532227 C-14.73988139 81.1374715 -14.74563913 79.06962075 -14.75140381 77.00177002 C-14.76192056 72.66060131 -14.76775853 68.31945115 -14.77124023 63.97827148 C-14.77672041 58.41863821 -14.80073548 52.85925042 -14.82921219 47.29969406 C-14.84784903 43.0257089 -14.85304477 38.75178268 -14.85457611 34.47776031 C-14.85760179 32.42846589 -14.86562743 30.37917248 -14.87876129 28.32991791 C-14.89584028 25.45974663 -14.89393671 22.59017236 -14.88745117 19.7199707 C-14.89666595 18.87506577 -14.90588074 18.03016083 -14.91537476 17.15965271 C-14.87123574 10.91525929 -13.74311826 6.80606892 -9.25169373 2.19178772 C-5.92591647 0.16462723 -3.87989694 0.02103578 0 0 Z " fill="#FFF200" transform="translate(37.531005859375,7.466552734375)"/>
<path d="M0 0 C1.30162582 -0.01583633 2.60325165 -0.03167267 3.94432068 -0.04798889 C5.35749674 -0.04414706 6.77066998 -0.03910781 8.18383789 -0.03295898 C9.64205827 -0.03819756 11.10027526 -0.0444749 12.55848694 -0.05174255 C15.61076837 -0.06213616 18.66258331 -0.05760132 21.71484375 -0.04296875 C25.61686602 -0.02578908 29.51741459 -0.04926901 33.41927242 -0.08445835 C36.42975022 -0.10647305 39.43987764 -0.10498114 42.45041084 -0.09669304 C43.88846006 -0.09587559 45.32653554 -0.10269962 46.7645092 -0.11746407 C59.38953046 -0.22722001 59.38953046 -0.22722001 63.27197266 2.82275391 C66.13937988 6.36057171 67.71385907 8.9540356 67.73641968 13.54269409 C67.74494965 14.33045227 67.75347961 15.11821045 67.76226807 15.92984009 C67.76136169 16.78500214 67.76045532 17.64016418 67.75952148 18.52124023 C67.76623871 19.42902222 67.77295593 20.3368042 67.77987671 21.27209473 C67.79887608 24.2733304 67.80278188 27.27434269 67.80493164 30.27563477 C67.81135817 32.36304822 67.81808642 34.45046076 67.82510376 36.53787231 C67.83708135 40.91418547 67.84078408 45.29041966 67.83959961 49.66674805 C67.83939639 55.2712655 67.86670024 60.87527607 67.90114403 66.47967339 C67.92339423 70.79141561 67.92743772 75.10303549 67.92638016 79.41482925 C67.92873888 81.48087435 67.93757763 83.54692268 67.95304489 85.61291122 C67.97266668 88.50458911 67.96688165 91.39516922 67.95483398 94.28686523 C67.966073 95.13797882 67.97731201 95.98909241 67.9888916 96.86599731 C67.93209228 102.23786326 67.00164444 105.24949838 63.46899414 109.53344727 C59.19007516 113.53630696 54.52916477 113.65630886 48.87182617 113.67871094 C47.77363556 113.68509079 46.67544495 113.69147064 45.54397583 113.69804382 C43.77822708 113.69971306 43.77822708 113.69971306 41.97680664 113.70141602 C40.75750458 113.70474442 39.53820251 113.70807281 38.2819519 113.71150208 C35.70481747 113.71656069 33.1276765 113.71891073 30.55053711 113.71875 C26.61569383 113.72093521 22.68113154 113.73909912 18.74633789 113.75805664 C16.23982843 113.76099105 13.73331764 113.76297553 11.22680664 113.76391602 C9.46713058 113.77469429 9.46713058 113.77469429 7.67190552 113.78569031 C-5.84702471 113.74803261 -5.84702471 113.74803261 -10.27319336 110.09594727 C-14.21904467 104.65339374 -14.68346035 101.48664557 -14.69213867 94.86450195 C-14.69710358 93.96676559 -14.70206848 93.06902924 -14.70718384 92.14408875 C-14.72182715 89.1644922 -14.72861176 86.18494893 -14.73413086 83.20532227 C-14.73988139 81.1374715 -14.74563913 79.06962075 -14.75140381 77.00177002 C-14.76192056 72.66060131 -14.76775853 68.31945115 -14.77124023 63.97827148 C-14.77672041 58.41863821 -14.80073548 52.85925042 -14.82921219 47.29969406 C-14.84784903 43.0257089 -14.85304477 38.75178268 -14.85457611 34.47776031 C-14.85760179 32.42846589 -14.86562743 30.37917248 -14.87876129 28.32991791 C-14.89584028 25.45974663 -14.89393671 22.59017236 -14.88745117 19.7199707 C-14.89666595 18.87506577 -14.90588074 18.03016083 -14.91537476 17.15965271 C-14.87123574 10.91525929 -13.74311826 6.80606892 -9.25169373 2.19178772 C-5.92591647 0.16462723 -3.87989694 0.02103578 0 0 Z M-7.53100586 7.53344727 C-10.30664836 11.28442796 -9.81914888 15.71022857 -9.80566406 20.16992188 C-9.81077499 21.04029587 -9.81588593 21.91066986 -9.82115173 22.80741882 C-9.83504807 25.6836129 -9.83409096 28.55956737 -9.83178711 31.43579102 C-9.83567396 33.43591908 -9.8400086 35.43604632 -9.84477234 37.43617249 C-9.8522346 41.62837398 -9.85194317 45.82049126 -9.84667969 50.01269531 C-9.84088445 55.38406762 -9.85781742 60.75509518 -9.88102436 66.12641048 C-9.89575817 70.25710566 -9.89663389 74.38771773 -9.89351463 78.51843452 C-9.894028 80.49877162 -9.89926865 82.47911335 -9.90932655 84.45942497 C-9.92166698 87.22903709 -9.91491369 89.99797672 -9.90332031 92.76757812 C-9.91096405 93.58488403 -9.91860779 94.40218994 -9.92648315 95.2442627 C-9.8845247 99.78068567 -9.61907903 102.94847608 -6.53100586 106.53344727 C-2.98686052 108.49813276 0.07280106 108.78897597 4.08203125 108.80810547 C5.18344955 108.81763748 6.28486786 108.82716949 7.41966248 108.83699036 C8.59996536 108.83607895 9.78026825 108.83516754 10.99633789 108.83422852 C12.21801163 108.83851364 13.43968536 108.84279877 14.69837952 108.84721375 C17.27970765 108.85295193 19.86105195 108.85346109 22.44238281 108.84912109 C26.38838318 108.84596177 30.33363334 108.86942589 34.27954102 108.89477539 C36.7893057 108.8970485 39.29907239 108.89775183 41.80883789 108.89672852 C42.98711655 108.90593826 44.1653952 108.91514801 45.37937927 108.92463684 C53.38726118 108.96340799 53.38726118 108.96340799 60.46899414 105.53344727 C63.20370875 101.7339057 62.75720501 97.37910494 62.74365234 92.89697266 C62.75131874 91.59141167 62.75131874 91.59141167 62.75914001 90.25947571 C62.77303635 87.38328163 62.77207924 84.50732716 62.76977539 81.63110352 C62.77366224 79.63097545 62.77799688 77.63084821 62.78276062 75.63072205 C62.79022288 71.43852055 62.78993145 67.24640327 62.78466797 63.05419922 C62.77887273 57.68282691 62.7958057 52.31179935 62.81901264 46.94048405 C62.83374645 42.80978887 62.83462217 38.6791768 62.83150291 34.54846001 C62.83201628 32.56812291 62.83725694 30.58778118 62.84731483 28.60746956 C62.85965526 25.83785744 62.85290197 23.06891781 62.84130859 20.29931641 C62.84895233 19.4820105 62.85659607 18.66470459 62.86447144 17.82263184 C62.82251298 13.28620886 62.55706731 10.11841845 59.46899414 6.53344727 C55.95629778 4.59178696 52.93545862 4.27815695 48.96362305 4.25878906 C47.88545319 4.24925705 46.80728333 4.23972504 45.69644165 4.22990417 C44.5411496 4.23081558 43.38585754 4.23172699 42.19555664 4.23266602 C40.99845062 4.22838089 39.8013446 4.22409576 38.56796265 4.21968079 C36.03790926 4.21394261 33.50783938 4.21343344 30.9777832 4.21777344 C27.11519072 4.22092994 23.25336678 4.19747848 19.39086914 4.17211914 C16.9299326 4.16984571 14.46899401 4.16914286 12.00805664 4.17016602 C10.85681305 4.16095627 9.70556946 4.15174652 8.5194397 4.14225769 C2.45069065 4.17711418 -2.27755797 4.33975902 -7.53100586 7.53344727 Z " fill="#0D0000" transform="translate(37.531005859375,7.466552734375)"/>
</svg>
